<?xml version="1.0" encoding="UTF-8" standalone="no"?>
<svg xmlns="http://www.w3.org/2000/svg" version="1.2" baseProfile="tiny" viewBox="0.00 0.00 444.00 386.00" width="444.00" height="386.00">
<g stroke-width="2.00" fill="none" stroke-linecap="butt">
<path stroke="#70b7e1" vector-effect="non-scaling-stroke" d="
  M 409.93 44.44
  C 409.26 44.32 408.67 43.89 408.45 43.20
  Q 403.98 29.47 394.87 20.93
  A 2.04 2.03 -59.1 0 1 394.34 18.81
  Q 394.81 17.42 394.19 16.95"
/>
<path stroke="#8b85a7" vector-effect="non-scaling-stroke" d="
  M 400.47 85.74
  Q 398.36 85.32 391.63 83.63
  Q 386.76 82.41 380.86 82.91"
/>
<path stroke="#1c78a7" vector-effect="non-scaling-stroke" d="
  M 380.16 66.12
  C 387.20 57.92 394.97 43.19 387.18 32.91
  Q 385.95 31.29 385.42 29.37
  C 383.53 22.60 377.15 20.89 370.83 19.70
  Q 359.18 17.50 350.44 22.36
  Q 349.76 22.73 349.09 22.35
  C 346.47 20.86 343.64 19.61 340.65 19.85
  C 334.51 20.34 330.89 26.63 335.25 31.64
  Q 335.59 32.03 335.18 32.34
  Q 329.45 36.67 332.29 42.48
  Q 334.40 46.81 340.43 46.65"
/>
<path stroke="#9ad5f0" vector-effect="non-scaling-stroke" d="
  M 362.41 80.18
  Q 362.24 81.34 362.05 82.25
  Q 361.87 83.07 362.79 83.09"
/>
<path stroke="#8b85a7" vector-effect="non-scaling-stroke" d="
  M 361.53 84.28
  Q 353.40 85.99 351.03 87.08
  Q 343.20 90.69 340.43 100.12"
/>
<path stroke="#70b7e1" vector-effect="non-scaling-stroke" d="
  M 340.43 100.12
  Q 332.51 96.42 326.69 89.81
  Q 311.37 72.43 314.54 49.15"
/>
<path stroke="#c692a8" vector-effect="non-scaling-stroke" d="
  M 340.43 100.12
  Q 343.94 102.28 346.06 102.97
  Q 369.60 110.55 389.70 96.80
  Q 389.98 96.61 390.31 96.61
  Q 390.51 96.61 390.68 96.54"
/>
<path stroke="#9cbee2" vector-effect="non-scaling-stroke" d="
  M 352.47 146.58
  Q 352.44 145.74 352.04 145.48
  Q 349.77 143.94 346.09 142.22
  Q 344.02 141.25 343.85 142.69"
/>
<path stroke="#9cbee2" vector-effect="non-scaling-stroke" d="
  M 317.02 130.30
  L 317.10 129.89
  Q 317.20 129.42 316.73 129.30
  Q 316.23 129.16 315.77 128.95
  Q 308.23 125.55 300.32 121.65
  Q 293.00 118.05 285.14 112.70
  C 282.59 110.97 280.39 108.93 277.74 107.39
  Q 277.26 107.11 277.13 106.58
  Q 276.18 102.89 276.16 99.50
  Q 276.14 96.23 275.96 93.00
  A 0.30 0.30 0.0 0 0 275.49 92.77
  Q 274.60 93.39 274.96 94.26
  Q 275.14 94.71 275.16 95.20
  L 275.46 104.25
  Q 275.52 106.02 274.31 104.73
  Q 271.68 101.96 268.15 99.38
  Q 267.90 99.20 267.83 98.91
  Q 267.79 98.73 267.61 98.66
  Q 267.31 98.53 267.01 98.79"
/>
<path stroke="#aed0f0" vector-effect="non-scaling-stroke" d="
  M 195.55 32.28
  Q 186.75 45.94 193.27 58.55
  C 196.52 64.82 202.61 69.58 209.49 70.83
  Q 221.84 73.08 231.14 64.03"
/>
<path stroke="#bdd6f1" vector-effect="non-scaling-stroke" d="
  M 263.46 95.99
  Q 262.31 97.41 258.50 98.01
  Q 240.96 100.79 232.54 101.58
  Q 226.40 102.15 220.25 102.33
  Q 219.77 102.34 219.82 102.81
  L 219.85 103.07
  Q 219.85 103.13 219.91 103.13
  Q 230.46 102.29 241.20 101.40
  C 247.42 100.88 253.89 99.94 259.89 98.46
  Q 263.00 97.70 266.16 97.42
  Q 266.81 97.37 266.90 98.01
  L 267.01 98.79"
/>
<path stroke="#aed0f0" vector-effect="non-scaling-stroke" d="
  M 267.01 98.79
  Q 266.88 109.44 267.00 120.10
  Q 267.05 123.96 267.90 125.72
  C 270.78 131.73 277.53 129.96 282.75 130.37
  A 0.89 0.89 0.0 0 1 283.48 130.90
  Q 287.39 139.94 291.89 148.57
  Q 301.65 167.25 315.27 189.61
  Q 315.42 189.86 315.67 189.71
  L 315.89 189.58
  Q 315.93 189.55 315.90 189.51
  Q 304.12 169.93 295.10 153.09
  Q 289.30 142.26 284.54 131.33
  A 0.79 0.79 0.0 0 1 285.26 130.23
  L 317.02 130.30"
/>
<path stroke="#bdd6f1" vector-effect="non-scaling-stroke" d="
  M 317.02 130.30
  Q 318.31 130.22 319.12 130.75"
/>
<path stroke="#bdd6f1" vector-effect="non-scaling-stroke" d="
  M 343.49 141.63
  Q 343.65 141.72 343.85 142.69"
/>
<path stroke="#aed0f0" vector-effect="non-scaling-stroke" d="
  M 343.85 142.69
  C 343.78 144.73 343.50 147.70 345.04 149.09
  C 347.54 151.34 350.45 147.89 352.47 146.58"
/>
<path stroke="#bdd6f1" vector-effect="non-scaling-stroke" d="
  M 352.47 146.58
  L 353.47 146.54"
/>
<path stroke="#aed0f0" vector-effect="non-scaling-stroke" d="
  M 388.98 173.82
  Q 386.57 175.12 384.25 176.56
  Q 375.88 181.75 373.99 190.82
  C 370.77 206.24 383.39 220.02 399.17 217.97"
/>
<path stroke="#bdd6f1" vector-effect="non-scaling-stroke" d="
  M 399.17 217.97
  Q 399.06 218.13 399.86 218.92"
/>
<path stroke="#82c9f0" vector-effect="non-scaling-stroke" d="
  M 393.03 255.32
  L 392.34 255.81
  Q 391.94 256.09 391.57 255.78
  Q 382.04 247.88 370.25 247.25
  Q 364.24 246.93 352.86 247.34"
/>
<path stroke="#77addd" vector-effect="non-scaling-stroke" d="
  M 352.86 247.34
  L 363.52 193.65
  Q 364.06 190.94 361.29 190.94
  L 261.53 190.95"
/>
<path stroke="#e7f4ff" vector-effect="non-scaling-stroke" d="
  M 261.53 190.95
  Q 263.51 185.96 265.86 181.09
  Q 267.81 177.06 270.25 174.72
  Q 274.37 170.76 278.96 167.76
  A 0.92 0.92 0.0 0 0 278.79 166.13
  Q 278.47 166.01 278.35 165.71
  Q 278.14 165.19 278.54 164.80
  L 279.33 164.01
  Q 279.82 163.52 279.44 162.94
  Q 278.86 162.07 278.69 161.08
  A 1.24 1.23 6.4 0 0 277.96 160.17
  Q 276.97 159.76 276.45 158.82
  Q 276.17 158.30 275.58 158.38
  Q 273.81 158.60 272.41 159.41
  Q 268.21 161.86 263.83 164.44
  A 1.11 0.95 -26.0 0 1 262.29 164.04
  Q 262.17 163.68 262.55 163.03
  Q 263.46 161.48 264.17 159.97
  A 0.78 0.78 0.0 0 0 263.32 158.87
  C 260.67 159.37 258.45 165.36 257.97 168.06
  Q 257.26 172.15 255.28 174.63
  Q 247.23 184.75 239.28 194.86
  Q 238.20 196.23 236.96 197.52
  A 0.75 0.75 0.0 0 1 235.68 197.12
  Q 235.62 196.72 234.72 196.82"
/>
<path stroke="#e7a9bb" vector-effect="non-scaling-stroke" d="
  M 234.72 196.82
  Q 229.41 183.34 223.09 172.49
  Q 221.63 170.00 219.18 166.95
  C 217.05 164.31 214.71 163.37 211.50 163.00
  Q 204.34 162.19 195.67 160.80"
/>
<path stroke="#e6cadb" vector-effect="non-scaling-stroke" d="
  M 195.67 160.80
  L 190.01 157.38"
/>
<path stroke="#e7f4ff" vector-effect="non-scaling-stroke" d="
  M 190.01 157.38
  Q 190.08 156.83 189.83 156.48
  Q 189.61 156.16 189.22 156.14
  Q 183.98 155.79 178.84 155.34
  Q 176.19 155.10 173.64 154.05
  Q 173.15 153.85 172.83 154.28
  L 172.33 154.94"
/>
<path stroke="#6897b7" vector-effect="non-scaling-stroke" d="
  M 172.33 154.94
  L 172.14 151.41"
/>
<path stroke="#e7f4ff" vector-effect="non-scaling-stroke" d="
  M 172.14 151.41
  C 175.39 152.20 180.22 153.88 183.50 153.30
  Q 186.38 152.79 187.42 153.11"
/>
<path stroke="#6897b7" vector-effect="non-scaling-stroke" d="
  M 187.42 153.11
  L 204.30 152.17
  Q 204.83 152.14 204.91 151.61
  Q 206.98 137.16 205.19 124.45
  Q 204.39 118.75 201.98 113.67
  C 200.91 111.43 200.99 109.18 200.51 106.79
  Q 199.20 100.35 193.35 97.37
  Q 191.34 96.35 186.96 95.25"
/>
<path stroke="#82c9f0" vector-effect="non-scaling-stroke" d="
  M 186.96 95.25
  Q 182.67 93.26 178.75 93.48
  Q 174.56 93.71 169.80 94.91"
/>
<path stroke="#6897b7" vector-effect="non-scaling-stroke" d="
  M 169.80 94.91
  Q 161.09 94.80 154.66 99.65
  Q 149.71 103.38 146.33 108.22"
/>
<path stroke="#aed0f0" vector-effect="non-scaling-stroke" d="
  M 146.33 108.22
  Q 138.94 109.65 132.44 112.97
  A 0.47 0.46 -13.5 0 1 131.76 112.56
  Q 131.70 97.42 131.78 84.42
  C 131.81 81.22 130.39 78.29 127.50 76.77
  Q 125.59 75.77 121.09 75.76
  Q 85.81 75.68 50.06 75.71"
/>
<path stroke="#1c78a7" vector-effect="non-scaling-stroke" d="
  M 234.78 256.12
  L 200.73 256.12
  A 2.26 2.25 11.7 0 0 198.66 257.47
  C 197.64 259.81 199.18 261.05 201.30 261.74
  Q 216.17 266.61 231.89 271.71"
/>
<path stroke="#50b9e4" vector-effect="non-scaling-stroke" d="
  M 374.90 288.02
  L 126.45 288.01"
/>
<path stroke="#82c9f0" vector-effect="non-scaling-stroke" d="
  M 117.58 286.08
  Q 114.49 284.28 111.89 282.62
  Q 109.62 281.16 105.21 275.42"
/>
<path stroke="#1c78a7" vector-effect="non-scaling-stroke" d="
  M 177.87 269.27
  Q 183.12 269.68 188.01 268.55
  Q 191.87 267.67 190.42 264.40
  Q 188.98 261.12 186.31 259.44"
/>
<path stroke="#fed5db" vector-effect="non-scaling-stroke" d="
  M 190.01 157.38
  C 190.06 162.18 190.00 167.86 188.30 172.33
  A 0.82 0.82 0.0 0 1 186.95 172.62
  L 172.55 158.11"
/>
<path stroke="#8fb8dd" vector-effect="non-scaling-stroke" d="
  M 165.32 144.20
  Q 164.64 143.96 164.34 143.59
  Q 164.00 143.18 164.28 142.73
  Q 170.24 133.25 162.89 124.77"
/>
<path stroke="#9cbee2" vector-effect="non-scaling-stroke" d="
  M 399.17 217.97
  Q 401.56 216.80 401.27 212.35
  Q 401.18 211.04 399.89 211.26
  C 390.53 212.85 382.40 208.17 380.31 198.93
  C 378.64 191.60 382.75 184.08 389.54 180.85
  C 390.68 180.30 391.89 180.55 393.00 179.93
  Q 393.53 179.64 393.25 179.10
  L 390.72 174.22"
/>
<path stroke="#487fa8" vector-effect="non-scaling-stroke" d="
  M 146.33 108.22
  L 145.50 109.53"
/>
<path stroke="#aed0f0" vector-effect="non-scaling-stroke" d="
  M 145.50 109.53
  Q 144.70 109.07 144.06 109.32
  Q 138.47 111.57 132.94 113.93
  A 2.00 1.99 78.3 0 0 131.74 115.76
  L 131.77 121.48
  A 0.72 0.72 0.0 0 1 130.68 122.10
  L 125.70 119.12
  Q 125.27 118.85 124.76 118.93
  Q 123.30 119.17 121.73 120.23
  C 100.65 134.51 86.07 157.59 77.18 181.39
  Q 75.68 185.39 70.19 201.50
  Q 68.08 207.70 64.21 214.91
  Q 63.56 216.11 64.56 217.10
  C 66.79 219.33 66.88 223.40 65.80 226.07
  C 64.10 230.25 59.81 232.11 55.48 231.08
  A 1.75 1.73 25.0 0 0 53.69 231.72
  Q 43.79 244.78 30.51 253.85
  Q 29.41 254.59 29.46 255.47"
/>
<path stroke="#c5b1cc" vector-effect="non-scaling-stroke" d="
  M 27.56 255.58
  Q 27.54 255.44 27.51 255.29"
/>
<path stroke="#aed0f0" vector-effect="non-scaling-stroke" d="
  M 29.21 253.13
  Q 33.59 251.38 38.35 247.10
  Q 46.51 239.77 53.13 231.01
  A 0.56 0.55 -53.8 0 0 53.01 230.22
  C 46.97 225.90 47.56 216.82 54.98 214.30
  Q 58.65 213.05 61.80 214.95
  A 0.90 0.90 0.0 0 0 63.04 214.62
  Q 67.05 207.47 69.81 199.11
  C 77.43 176.05 87.23 154.17 102.64 136.13
  Q 110.81 126.57 122.97 118.40
  Q 123.62 117.96 122.94 117.57
  Q 118.16 114.83 113.78 112.27
  Q 112.08 111.28 110.23 111.28
  Q 81.20 111.20 52.43 111.28
  C 45.57 111.30 42.67 106.58 43.38 100.01
  Q 43.86 95.56 43.30 91.17"
/>
<path stroke="#8fb8dd" vector-effect="non-scaling-stroke" d="
  M 261.53 190.95
  L 250.85 190.96
  A 3.38 3.38 0.0 0 0 247.55 193.68
  L 241.87 222.33"
/>
<path stroke="#e7f4ff" vector-effect="non-scaling-stroke" d="
  M 241.87 222.33
  Q 239.50 222.73 237.28 223.23
  Q 234.48 223.85 232.65 223.56
  Q 225.85 222.45 222.42 215.96"
/>
<path stroke="#f0b0b7" vector-effect="non-scaling-stroke" d="
  M 222.42 215.96
  Q 223.94 214.52 224.07 214.02"
/>
<path stroke="#ffb5bb" vector-effect="non-scaling-stroke" d="
  M 224.07 214.02
  L 235.38 199.83
  Q 235.69 199.43 235.62 198.92
  Q 235.46 197.86 234.72 196.82"
/>
<path stroke="#f06572" vector-effect="non-scaling-stroke" d="
  M 224.07 214.02
  Q 223.29 210.42 223.61 206.63
  Q 224.19 199.63 224.18 199.32
  C 223.86 189.27 220.56 181.71 215.35 173.53
  Q 215.09 173.13 214.56 173.24
  A 0.53 0.53 0.0 0 0 214.15 173.88
  Q 216.89 185.78 217.95 197.25
  Q 218.33 201.42 217.36 208.66"
/>
<path stroke="#e7a9bb" vector-effect="non-scaling-stroke" d="
  M 217.36 208.66
  Q 215.93 212.38 213.83 215.79
  Q 212.43 218.05 212.12 220.16
  Q 211.72 222.95 211.54 225.75
  Q 210.86 236.38 209.50 247.32"
/>
<path stroke="#9a8aab" vector-effect="non-scaling-stroke" d="
  M 209.50 247.32
  L 153.96 246.90
  Q 153.44 246.90 153.04 246.56
  Q 152.32 245.93 152.01 245.02"
/>
<path stroke="#8f6e98" vector-effect="non-scaling-stroke" d="
  M 152.01 245.02
  Q 153.11 232.67 153.87 220.24
  Q 154.26 213.82 151.64 208.33
  Q 151.30 207.62 150.91 208.30
  Q 143.20 221.95 132.80 233.68"
/>
<path stroke="#ffb5bb" vector-effect="non-scaling-stroke" d="
  M 132.80 233.68
  Q 124.75 229.05 115.49 228.21"
/>
<path stroke="#886386" vector-effect="non-scaling-stroke" d="
  M 115.49 228.21
  L 121.97 212.52"
/>
<path stroke="#1c78a7" vector-effect="non-scaling-stroke" d="
  M 186.96 95.25
  C 170.29 94.82 158.21 103.78 156.79 121.45"
/>
<path stroke="#2a8ecd" vector-effect="non-scaling-stroke" d="
  M 156.79 121.45
  Q 156.51 122.38 155.25 122.49
  Q 153.89 122.62 153.49 121.52"
/>
<path stroke="#1c78a7" vector-effect="non-scaling-stroke" d="
  M 153.49 121.52
  Q 153.39 115.06 154.48 110.73
  Q 157.24 99.85 169.80 94.91"
/>
<path stroke="#fe8b97" vector-effect="non-scaling-stroke" d="
  M 195.67 160.80
  Q 196.01 165.43 198.18 170.04
  Q 199.08 171.96 197.79 173.26
  C 195.54 175.52 191.80 175.37 188.81 174.37
  Q 188.23 174.17 187.74 174.53
  C 183.91 177.28 179.18 179.50 175.75 174.93
  Q 173.61 172.07 171.45 167.51
  C 170.58 165.66 169.27 164.00 168.11 162.33"
/>
<path stroke="#8e8eb9" vector-effect="non-scaling-stroke" d="
  M 168.11 162.33
  Q 169.21 161.20 169.25 160.53"
/>
<path stroke="#81a3b7" vector-effect="non-scaling-stroke" d="
  M 187.42 153.11
  Q 197.57 148.51 199.42 138.99
  Q 202.31 124.09 195.04 111.34
  Q 192.96 107.69 189.24 106.05
  Q 188.68 105.80 188.37 106.34
  C 183.61 114.80 173.73 119.31 164.35 121.19
  Q 163.81 121.30 163.67 121.83
  L 162.89 124.77"
/>
<path stroke="#115c94" vector-effect="non-scaling-stroke" d="
  M 162.89 124.77
  L 156.79 121.45"
/>
<path stroke="#2a8ecd" vector-effect="non-scaling-stroke" d="
  M 352.86 247.34
  L 348.03 271.22
  Q 347.93 271.72 347.44 271.83
  Q 345.87 272.18 344.03 271.80"
/>
<path stroke="#1867a8" vector-effect="non-scaling-stroke" d="
  M 344.03 271.80
  L 345.37 271.80
  A 0.93 0.93 0.0 0 0 345.96 270.15
  L 312.89 243.06"
/>
<path stroke="#57a4d9" vector-effect="non-scaling-stroke" d="
  M 312.89 243.06
  Q 317.32 239.04 316.42 234.24
  C 314.67 224.81 303.46 223.43 298.57 231.48"
/>
<path stroke="#1867a8" vector-effect="non-scaling-stroke" d="
  M 298.57 231.48
  L 256.00 196.57
  A 1.10 1.10 0.0 0 0 254.22 197.23
  Q 248.41 230.78 242.02 269.49
  Q 241.85 270.48 242.79 271.79"
/>
<path stroke="#2a8ecd" vector-effect="non-scaling-stroke" d="
  M 242.79 271.79
  L 231.89 271.71"
/>
<path stroke="#115c94" vector-effect="non-scaling-stroke" d="
  M 231.89 271.71
  L 235.12 256.57
  Q 235.16 256.39 235.01 256.28
  Q 234.90 256.20 234.78 256.12"
/>
<path stroke="#2a8ecd" vector-effect="non-scaling-stroke" d="
  M 234.78 256.12
  L 235.01 255.97
  Q 235.13 255.89 235.16 255.75
  L 236.92 247.20"
/>
<path stroke="#77addd" vector-effect="non-scaling-stroke" d="
  M 236.92 247.20
  L 241.87 222.33"
/>
<path stroke="#115c94" vector-effect="non-scaling-stroke" d="
  M 153.49 121.52
  Q 152.37 123.11 150.78 124.47
  Q 148.74 126.22 148.15 127.37
  C 145.11 133.34 147.54 142.14 153.71 144.89
  Q 156.23 146.02 157.76 145.68
  Q 161.43 144.87 165.32 144.20"
/>
<path stroke="#81a3b7" vector-effect="non-scaling-stroke" d="
  M 165.32 144.20
  Q 169.24 146.26 173.75 146.93
  Q 174.25 147.01 174.58 146.62
  Q 176.35 144.50 178.78 145.46
  A 2.36 2.36 0.0 0 1 178.60 149.91
  Q 176.60 150.51 174.83 149.13
  Q 174.40 148.80 173.86 148.74
  Q 170.91 148.39 168.18 147.36
  Q 168.08 147.32 168.07 147.43
  L 168.02 147.77
  Q 168.00 147.96 168.17 148.05
  Q 170.54 149.32 172.14 151.41"
/>
<path stroke="#81a3b7" vector-effect="non-scaling-stroke" d="
  M 172.33 154.94
  Q 172.26 155.79 172.03 155.72"
/>
<path stroke="#6897b7" vector-effect="non-scaling-stroke" d="
  M 172.03 155.72
  L 148.09 158.78
  A 1.09 1.08 74.2 0 1 146.97 158.15
  C 140.46 143.60 137.32 124.19 145.50 109.53"
/>
<path stroke="#8b85a7" vector-effect="non-scaling-stroke" d="
  M 91.25 254.02
  Q 91.17 255.10 91.25 255.19
  A 3.10 2.60 -32.2 0 0 94.66 255.66
  Q 99.39 253.41 104.07 250.87
  Q 107.59 248.96 111.82 248.94
  C 113.04 248.93 114.12 248.51 115.04 249.63
  Q 116.30 251.16 116.01 252.70
  C 115.75 254.08 115.98 255.15 116.12 256.49
  Q 116.17 257.00 115.92 257.46
  L 112.19 264.30
  Q 110.65 267.13 108.63 269.63
  Q 106.98 271.67 105.51 273.76
  Q 105.06 274.39 105.21 275.42"
/>
<path stroke="#d8a4b7" vector-effect="non-scaling-stroke" d="
  M 105.21 275.42
  Q 104.40 275.59 103.95 276.26
  Q 100.34 281.79 98.31 286.83
  C 97.06 289.93 96.46 295.63 101.48 295.60
  Q 104.10 295.59 106.18 293.91
  C 109.91 290.90 112.61 288.13 117.58 286.08"
/>
<path stroke="#8b85a7" vector-effect="non-scaling-stroke" d="
  M 117.58 286.08
  Q 122.98 284.15 126.45 288.01"
/>
<path stroke="#a694ab" vector-effect="non-scaling-stroke" d="
  M 126.45 288.01
  Q 127.96 292.08 127.58 295.74
  Q 126.78 303.36 124.49 310.48"
/>
<path stroke="#d8a4b7" vector-effect="non-scaling-stroke" d="
  M 124.49 310.48
  Q 123.75 312.08 121.59 317.55
  Q 118.61 325.09 112.41 332.99
  Q 111.94 333.58 112.18 334.47"
/>
<path stroke="#b78ca8" vector-effect="non-scaling-stroke" d="
  M 87.39 347.80
  Q 87.23 347.92 86.99 347.89"
/>
<path stroke="#f06572" vector-effect="non-scaling-stroke" d="
  M 75.87 342.88
  Q 80.96 334.75 82.73 325.03
  Q 82.77 324.81 82.98 324.72
  Q 83.11 324.67 83.20 324.58
  Q 83.42 324.36 83.48 324.05
  Q 84.98 315.87 83.67 307.44
  C 83.27 304.87 80.96 302.18 79.34 300.17
  C 77.30 297.63 73.02 299.36 71.28 301.14
  C 69.39 303.07 69.17 306.10 67.54 308.38
  Q 67.28 308.75 67.25 309.19
  C 67.02 311.92 64.35 317.49 60.67 315.81
  C 57.60 314.41 57.76 307.47 57.47 304.74
  C 56.77 298.22 59.13 292.06 57.65 285.60
  Q 57.53 285.09 57.98 284.82
  Q 58.33 284.62 58.86 284.69"
/>
<path stroke="#82c9f0" vector-effect="non-scaling-stroke" d="
  M 236.92 247.20
  L 209.50 247.32"
/>
<path stroke="#88aecb" vector-effect="non-scaling-stroke" d="
  M 115.49 228.21
  Q 110.92 239.45 120.26 246.79"
/>
<path stroke="#2383bb" vector-effect="non-scaling-stroke" d="
  M 120.26 246.79
  Q 113.01 247.93 106.12 246.72"
/>
<path stroke="#2a8ecd" vector-effect="non-scaling-stroke" d="
  M 152.01 245.02
  Q 151.80 246.08 151.27 245.83"
/>
<path stroke="#8fb8dd" vector-effect="non-scaling-stroke" d="
  M 151.27 245.83
  L 132.80 233.68"
/>
<path stroke="#7ccff0" vector-effect="non-scaling-stroke" d="
  M 368.44 296.14
  L 126.47 323.68
  Q 125.98 323.74 125.52 323.90
  L 124.06 324.42"
/>
<path stroke="#9cd8f4" vector-effect="non-scaling-stroke" d="
  M 124.06 324.42
  L 124.49 310.48"
/>
<path stroke="#509ac7" vector-effect="non-scaling-stroke" d="
  M 298.57 231.48
  Q 296.58 236.82 299.19 240.51
  Q 304.45 247.93 312.89 243.06"
/>
<path stroke="#2383bb" vector-effect="non-scaling-stroke" d="
  M 344.03 271.80
  L 242.79 271.79"
/>
<path stroke="#9ad5f0" vector-effect="non-scaling-stroke" d="
  M 151.27 245.83
  Q 155.74 248.62 160.11 251.62
  Q 161.67 252.70 163.38 252.68
  Q 168.16 252.61 173.53 252.25
  Q 176.93 252.03 179.97 253.51
  Q 183.98 255.47 186.31 259.44"
/>
<path stroke="#81a3b7" vector-effect="non-scaling-stroke" d="
  M 186.31 259.44
  Q 186.74 261.23 186.02 261.36
  Q 185.45 261.47 183.78 260.70
  Q 182.14 259.94 178.07 256.89
  Q 177.88 256.75 177.73 256.93
  L 177.52 257.18
  Q 177.39 257.34 177.56 257.46
  C 179.56 258.82 182.71 260.57 184.16 262.53
  Q 186.07 265.11 182.97 264.28
  Q 179.55 263.37 175.99 260.84
  Q 175.70 260.64 175.51 260.93
  L 175.38 261.15
  A 0.05 0.05 0.0 0 0 175.40 261.23
  Q 178.96 263.30 181.76 266.17
  A 0.50 0.49 -24.3 0 1 181.44 267.01
  C 178.62 267.21 176.00 265.65 173.62 264.28
  Q 173.23 264.05 173.26 264.50
  Q 173.26 264.64 173.34 264.77
  Q 173.50 265.04 173.75 265.15
  Q 176.77 266.45 177.87 269.27"
/>
<path stroke="#9ad5f0" vector-effect="non-scaling-stroke" d="
  M 177.87 269.27
  Q 170.89 266.91 164.41 266.22
  Q 162.64 266.04 158.84 264.17
  Q 155.69 262.62 153.43 261.77
  Q 143.74 258.11 134.27 253.94
  Q 126.70 250.61 120.26 246.79"
/>
<path stroke="#e7f4ff" vector-effect="non-scaling-stroke" d="
  M 172.03 155.72
  Q 171.45 158.13 172.55 158.11"
/>
<path stroke="#e6cadb" vector-effect="non-scaling-stroke" d="
  M 172.55 158.11
  L 169.25 160.53"
/>
<path stroke="#77addd" vector-effect="non-scaling-stroke" d="
  M 169.25 160.53
  L 116.03 167.39"
/>
<path stroke="#70a2cb" vector-effect="non-scaling-stroke" d="
  M 116.03 167.39
  C 108.31 167.96 101.88 169.85 99.36 177.19
  Q 98.26 180.40 99.08 187.39
  Q 102.56 216.86 106.12 246.72"
/>
<path stroke="#82c9f0" vector-effect="non-scaling-stroke" d="
  M 106.12 246.72
  Q 106.16 246.75 106.02 246.96
  Q 105.88 247.16 105.64 247.14
  Q 101.30 246.86 98.57 247.59
  Q 94.76 248.60 91.25 254.02"
/>
<path stroke="#d8a4b7" vector-effect="non-scaling-stroke" d="
  M 91.25 254.02
  Q 92.18 248.14 93.45 242.90
  C 94.71 237.78 98.58 219.25 88.80 219.53
  Q 85.94 219.61 83.65 221.55
  C 77.79 226.49 76.51 233.21 77.05 240.59
  Q 77.49 246.74 78.05 252.92
  Q 78.29 255.48 77.80 257.94
  A 1.88 1.88 0.0 0 1 75.44 259.38
  C 70.26 257.92 66.72 251.60 63.46 247.51
  C 58.49 241.25 52.47 246.24 54.03 252.56
  Q 55.35 257.93 58.93 264.00
  Q 63.54 271.81 68.55 279.86
  C 70.80 283.47 74.50 289.38 73.24 293.47
  A 0.58 0.58 0.0 0 1 72.56 293.86
  Q 70.01 293.28 68.19 291.82
  Q 63.76 288.25 58.86 284.69"
/>
<path stroke="#e7a9bb" vector-effect="non-scaling-stroke" d="
  M 58.86 284.69
  Q 56.87 279.96 55.63 278.59
  Q 52.72 275.37 49.71 278.65
  Q 45.89 282.81 42.82 289.19
  Q 42.29 290.28 41.14 289.98
  Q 40.97 289.94 40.96 290.11
  Q 40.94 290.27 41.07 290.33
  Q 41.63 290.58 41.02 290.61
  Q 40.73 290.63 40.49 290.74"
/>
<path stroke="#aed0f0" vector-effect="non-scaling-stroke" d="
  M 25.36 209.29
  Q 25.50 208.98 25.82 208.73
  Q 26.16 208.46 26.60 208.50
  C 48.86 210.45 63.29 185.84 49.43 168.13
  Q 42.03 158.66 28.78 158.27
  Q 28.45 158.26 28.44 158.60
  L 28.44 158.87
  A 0.13 0.13 0.0 0 0 28.57 159.00
  Q 37.29 159.02 43.60 163.62
  Q 51.32 169.24 53.18 178.10
  C 56.60 194.38 44.24 208.24 28.01 207.49
  Q 27.14 207.45 25.43 206.87"
/>
<path stroke="#bdd6f1" vector-effect="non-scaling-stroke" d="
  M 25.56 203.61
  Q 26.49 202.62 27.19 202.69"
/>
<path stroke="#aed0f0" vector-effect="non-scaling-stroke" d="
  M 27.19 202.69
  Q 39.25 203.32 45.27 194.84
  C 49.98 188.21 50.33 179.31 45.70 172.54
  Q 39.52 163.50 27.72 164.07"
/>
<path stroke="#bdd6f1" vector-effect="non-scaling-stroke" d="
  M 27.72 164.07
  Q 27.21 164.01 27.01 163.73"
/>
<path stroke="#aed0f0" vector-effect="non-scaling-stroke" d="
  M 5.92 177.29
  Q 5.74 177.23 5.57 177.16"
/>
<path stroke="#c5b1cc" vector-effect="non-scaling-stroke" d="
  M 6.88 280.24
  Q 6.75 280.23 6.63 280.21"
/>
<path stroke="#d8a4b7" vector-effect="non-scaling-stroke" d="
  M 222.42 215.96
  L 217.36 208.66"
/>
<path stroke="#8f6e98" vector-effect="non-scaling-stroke" d="
  M 168.11 162.33
  Q 156.65 166.33 144.93 170.57
  Q 140.84 172.05 139.02 175.55
  Q 130.62 191.75 121.97 212.52"
/>
<path stroke="#1867a8" vector-effect="non-scaling-stroke" d="
  M 121.97 212.52
  L 115.99 169.30
  Q 115.93 168.82 116.23 168.44
  Q 116.72 167.83 116.03 167.39"
/>
<path stroke="#9cbee2" vector-effect="non-scaling-stroke" d="
  M 231.60 62.94
  L 227.45 59.89"
/>
<path stroke="#9cbee2" vector-effect="non-scaling-stroke" d="
  M 202.79 36.40
  Q 198.98 34.96 197.62 31.34"
/>
<path stroke="#5694ce" vector-effect="non-scaling-stroke" d="
  M 87.66 352.21
  Q 87.56 351.91 87.29 352.05"
/>
<path stroke="#f06572" vector-effect="non-scaling-stroke" d="
  M 68.61 348.44
  L 63.21 338.70
  A 1.92 1.90 44.7 0 1 63.19 336.90
  C 65.76 331.99 67.70 326.64 70.21 321.71
  Q 72.32 317.57 73.98 312.95
  A 0.50 0.49 23.6 0 0 73.74 312.35
  L 73.51 312.22
  Q 73.30 312.12 73.21 312.33
  Q 66.10 328.33 62.51 336.25
  Q 62.43 336.43 62.26 336.54
  Q 61.59 336.96 61.58 336.17
  Q 61.57 335.78 61.39 335.45
  Q 54.74 323.33 47.36 311.24
  Q 47.06 310.74 47.20 310.16
  L 52.35 288.88
  A 0.72 0.72 0.0 0 0 52.02 288.10
  L 51.72 287.91
  A 0.26 0.26 0.0 0 0 51.34 288.07
  Q 48.98 297.63 46.84 307.64
  Q 46.73 308.16 46.36 308.49
  A 0.47 0.46 -35.7 0 1 45.66 308.38
  L 26.82 277.42
  Q 26.73 277.28 26.58 277.34
  L 26.27 277.48
  A 0.36 0.36 0.0 0 0 26.10 278.00
  L 44.96 308.92
  A 0.65 0.65 0.0 0 1 44.29 309.90
  L 20.82 305.71
  Q 20.33 305.63 20.24 306.11
  L 20.19 306.41
  A 0.23 0.23 0.0 0 0 20.38 306.68
  L 45.10 311.09
  A 2.49 2.48 -10.1 0 1 46.82 312.29
  L 60.60 335.86
  Q 61.49 337.39 59.75 337.09
  L 34.55 332.75
  A 0.21 0.21 0.0 0 0 34.30 332.92
  L 34.23 333.37
  Q 34.18 333.65 34.46 333.70
  L 61.32 338.33
  Q 61.82 338.41 62.08 338.85
  Q 64.61 343.06 66.71 347.54
  Q 66.97 348.10 66.95 348.82"
/>
<path stroke="#c6c1d8" vector-effect="non-scaling-stroke" d="
  M 319.84 335.09
  Q 317.39 318.38 301.28 323.30"
/>
<path stroke="#62c1ec" vector-effect="non-scaling-stroke" d="
  M 301.28 323.30
  Q 293.71 318.16 284.99 317.22
  C 275.42 316.20 265.72 319.50 258.92 326.12
  Q 247.29 337.43 248.84 353.65
  Q 249.07 356.04 249.66 358.30
  Q 250.24 360.51 250.83 362.66"
/>
<path stroke="#aee0fc" vector-effect="non-scaling-stroke" d="
  M 122.80 336.42
  Q 122.46 336.06 123.29 335.86
  Q 123.76 335.75 123.77 335.26
  L 124.06 324.42"
/>
<path stroke="#9cbee2" vector-effect="non-scaling-stroke" d="
  M 27.72 164.07
  L 26.80 164.53
  Q 26.33 164.76 26.29 165.28
  Q 24.98 182.93 25.01 199.06
  C 25.01 199.84 25.50 200.34 25.36 201.19
  Q 25.26 201.79 25.81 202.05
  L 27.19 202.69"
/>
<path stroke="#1867a8" vector-effect="non-scaling-stroke" d="
  M 107.71 362.92
  L 62.99 363.02"
/>
<path stroke="#806994" vector-effect="non-scaling-stroke" d="
  M 70.66 353.47
  Q 70.16 353.35 70.20 353.71"
/>
<path stroke="#d4b8cd" vector-effect="non-scaling-stroke" d="
  M 314.13 345.10
  L 304.95 346.62"
/>
<path stroke="#99abcc" vector-effect="non-scaling-stroke" d="
  M 301.28 323.30
  Q 293.32 328.38 295.30 337.73"
/>
<path stroke="#70b7e1" vector-effect="non-scaling-stroke" d="
  M 258.36 361.94
  Q 255.93 360.37 251.72 362.97"
/>
<path stroke="#aed0f0" vector-effect="non-scaling-stroke" d="
  M 145.55 57.16
  A 0.60 0.60 0.0 0 0 146.05 58.08
  L 161.42 58.12
  A 0.60 0.60 0.0 0 0 161.91 57.17
  L 153.71 45.73
  A 0.60 0.60 0.0 0 0 152.71 45.76
  L 145.55 57.16"
/>
<path stroke="#aed0f0" vector-effect="non-scaling-stroke" d="
  M 232.60 144.23
  A 0.57 0.57 0.0 0 0 233.09 145.11
  L 245.47 144.77
  A 0.57 0.57 0.0 0 0 245.91 143.86
  L 239.47 134.91
  A 0.57 0.57 0.0 0 0 238.53 134.94
  L 232.60 144.23"
/>
<path stroke="#aed0f0" vector-effect="non-scaling-stroke" d="
  M 349.83 171.19
  A 9.41 9.41 0.0 0 0 340.42 161.78
  A 9.41 9.41 0.0 0 0 331.01 171.19
  A 9.41 9.41 0.0 0 0 340.42 180.60
  A 9.41 9.41 0.0 0 0 349.83 171.19"
/>
<path stroke="#9cbee2" vector-effect="non-scaling-stroke" d="
  M 285.47 64.91
  C 288.51 60.86 293.64 56.76 298.96 58.05
  C 302.50 58.92 302.88 63.58 302.13 66.38
  C 298.79 78.82 288.62 87.60 276.75 92.45
  Q 276.55 92.53 276.60 92.74
  L 276.72 93.20
  Q 276.80 93.51 277.09 93.37
  Q 280.98 91.54 284.65 89.49
  Q 296.18 83.01 301.64 70.88
  C 303.69 66.31 304.86 58.45 298.34 57.15
  C 290.73 55.63 283.53 65.00 280.75 70.83
  Q 276.31 80.14 275.40 92.07
  Q 275.38 92.28 275.59 92.30
  L 275.85 92.32
  Q 276.18 92.35 276.22 92.02
  C 277.50 82.04 279.49 72.84 285.47 64.91"
/>
<path stroke="#aed0f0" vector-effect="non-scaling-stroke" d="
  M 124.33 84.35
  A 0.60 0.60 0.0 0 0 123.73 83.75
  L 48.91 83.75
  A 0.60 0.60 0.0 0 0 48.31 84.35
  L 48.31 84.39
  A 0.60 0.60 0.0 0 0 48.91 84.99
  L 123.73 84.99
  A 0.60 0.60 0.0 0 0 124.33 84.39
  L 124.33 84.35"
/>
<path stroke="#aed0f0" vector-effect="non-scaling-stroke" d="
  M 124.19 93.43
  A 0.57 0.57 0.0 0 0 123.62 92.86
  L 48.88 92.86
  A 0.57 0.57 0.0 0 0 48.31 93.43
  L 48.31 93.45
  A 0.57 0.57 0.0 0 0 48.88 94.02
  L 123.62 94.02
  A 0.57 0.57 0.0 0 0 124.19 93.45
  L 124.19 93.43"
/>
<path stroke="#aed0f0" vector-effect="non-scaling-stroke" d="
  M 124.11 102.55
  A 0.55 0.55 0.0 0 0 123.56 102.00
  L 48.84 102.00
  A 0.55 0.55 0.0 0 0 48.29 102.55
  L 48.29 102.59
  A 0.55 0.55 0.0 0 0 48.84 103.14
  L 123.56 103.14
  A 0.55 0.55 0.0 0 0 124.11 102.59
  L 124.11 102.55"
/>
<path stroke="#2a8ecd" vector-effect="non-scaling-stroke" d="
  M 156.8037 141.0208
  A 6.91 5.73 79.8 0 0 161.2194 133.2053
  A 6.91 5.73 79.8 0 0 154.3563 127.4192
  A 6.91 5.73 79.8 0 0 149.9406 135.2347
  A 6.91 5.73 79.8 0 0 156.8037 141.0208"
/>
<path stroke="#aed0f0" vector-effect="non-scaling-stroke" d="
  M 233.97 143.46
  A 0.49 0.49 0.0 0 0 234.39 144.22
  L 244.15 144.16
  A 0.49 0.49 0.0 0 0 244.54 143.38
  L 239.31 136.28
  A 0.49 0.49 0.0 0 0 238.51 136.31
  L 233.97 143.46"
/>
<path stroke="#f06572" vector-effect="non-scaling-stroke" d="
  M 156.06 198.17
  Q 159.24 185.43 150.73 175.86
  Q 149.19 174.13 149.79 176.37
  Q 152.31 185.77 152.95 193.59
  C 153.11 195.59 153.45 199.90 152.52 201.81
  Q 152.03 202.81 152.21 203.93
  Q 152.48 205.61 153.49 204.24
  Q 155.09 202.06 156.06 198.17"
/>
<path stroke="#f06572" vector-effect="non-scaling-stroke" d="
  M 174.54 210.00
  Q 190.11 216.00 204.58 210.49
  Q 207.96 209.20 210.40 206.84
  Q 212.81 204.51 209.49 204.91
  Q 193.77 206.79 174.78 208.36
  Q 173.77 208.44 174.02 209.42
  Q 174.13 209.84 174.54 210.00"
/>
<path stroke="#aed0f0" vector-effect="non-scaling-stroke" d="
  M 348.94 171.27
  A 8.55 8.55 0.0 0 0 340.39 162.72
  A 8.55 8.55 0.0 0 0 331.84 171.27
  A 8.55 8.55 0.0 0 0 340.39 179.82
  A 8.55 8.55 0.0 0 0 348.94 171.27"
/>
<path stroke="#9cbee2" vector-effect="non-scaling-stroke" d="
  M 411.11 195.55
  A 15.03 15.03 0.0 0 0 396.08 180.52
  A 15.03 15.03 0.0 0 0 381.05 195.55
  A 15.03 15.03 0.0 0 0 396.08 210.58
  A 15.03 15.03 0.0 0 0 411.11 195.55"
/>
<path stroke="#9cbee2" vector-effect="non-scaling-stroke" d="
  M 311.2874 361.3686
  A 2.33 0.33 9.6 0 0 309.0450 360.6546
  A 2.33 0.33 9.6 0 0 306.6926 360.5914
  A 2.33 0.33 9.6 0 0 308.9350 361.3054
  A 2.33 0.33 9.6 0 0 311.2874 361.3686"
/>
</g>
<path fill="#abc4e2" d="
  M 409.93 44.44
  C 409.26 44.32 408.67 43.89 408.45 43.20
  Q 403.98 29.47 394.87 20.93
  A 2.04 2.03 -59.1 0 1 394.34 18.81
  Q 394.81 17.42 394.19 16.95
  Q 394.08 16.12 393.65 15.85
  Q 393.27 15.62 393.31 15.17
  Q 393.44 13.86 394.11 12.75
  C 399.05 4.59 407.90 -0.27 417.31 1.54
  Q 427.91 3.58 433.13 12.83
  C 436.02 17.95 436.81 24.46 434.84 30.13
  Q 430.36 43.02 415.85 45.57
  Q 412.72 46.11 409.93 44.44
  Z
  M 415.94 15.40
  C 416.28 17.85 414.26 20.00 412.84 21.79
  Q 410.31 24.98 411.02 29.15
  Q 411.16 29.99 412.01 29.90
  L 413.48 29.74
  Q 414.33 29.64 414.32 28.79
  C 414.27 25.67 415.91 23.31 417.96 21.14
  C 421.02 17.92 421.49 12.49 417.18 10.18
  Q 413.61 8.27 408.57 10.12
  A 1.53 1.53 0.0 0 0 407.60 11.88
  Q 407.66 12.17 407.71 12.45
  Q 407.93 13.72 409.17 13.36
  C 411.22 12.78 415.52 12.27 415.94 15.40
  Z
  M 415.28 34.83
  A 2.67 2.67 0.0 0 0 412.61 32.16
  A 2.67 2.67 0.0 0 0 409.94 34.83
  A 2.67 2.67 0.0 0 0 412.61 37.50
  A 2.67 2.67 0.0 0 0 415.28 34.83
  Z"
/>
<path fill="#35aae0" d="
  M 394.19 16.95
  Q 394.81 17.42 394.34 18.81
  A 2.04 2.03 -59.1 0 0 394.87 20.93
  Q 403.98 29.47 408.45 43.20
  C 408.67 43.89 409.26 44.32 409.93 44.44
  Q 408.73 44.27 409.10 46.48
  Q 412.76 68.38 400.47 85.74
  Q 398.36 85.32 391.63 83.63
  Q 386.76 82.41 380.86 82.91
  C 379.79 77.41 380.12 71.67 380.16 66.12
  C 387.20 57.92 394.97 43.19 387.18 32.91
  Q 385.95 31.29 385.42 29.37
  C 383.53 22.60 377.15 20.89 370.83 19.70
  Q 359.18 17.50 350.44 22.36
  Q 349.76 22.73 349.09 22.35
  C 346.47 20.86 343.64 19.61 340.65 19.85
  C 334.51 20.34 330.89 26.63 335.25 31.64
  Q 335.59 32.03 335.18 32.34
  Q 329.45 36.67 332.29 42.48
  Q 334.40 46.81 340.43 46.65
  C 340.44 56.37 340.66 64.32 345.88 72.37
  Q 351.17 80.52 362.41 80.18
  Q 362.24 81.34 362.05 82.25
  Q 361.87 83.07 362.79 83.09
  Q 361.96 83.20 361.53 84.28
  Q 353.40 85.99 351.03 87.08
  Q 343.20 90.69 340.43 100.12
  Q 332.51 96.42 326.69 89.81
  Q 311.37 72.43 314.54 49.15
  Q 316.30 42.09 317.30 39.51
  C 323.17 24.34 335.53 12.90 351.28 9.37
  Q 372.29 4.66 390.80 17.66
  Q 391.89 18.43 393.26 18.53
  Q 393.77 18.56 393.82 18.06
  Q 393.89 17.31 394.19 16.95
  Z"
/>
<path fill="#cee8ff" d="
  M 195.55 32.28
  Q 186.75 45.94 193.27 58.55
  C 196.52 64.82 202.61 69.58 209.49 70.83
  Q 221.84 73.08 231.14 64.03
  L 263.46 95.99
  Q 262.31 97.41 258.50 98.01
  Q 240.96 100.79 232.54 101.58
  Q 226.40 102.15 220.25 102.33
  Q 219.77 102.34 219.82 102.81
  L 219.85 103.07
  Q 219.85 103.13 219.91 103.13
  Q 230.46 102.29 241.20 101.40
  C 247.42 100.88 253.89 99.94 259.89 98.46
  Q 263.00 97.70 266.16 97.42
  Q 266.81 97.37 266.90 98.01
  L 267.01 98.79
  Q 266.88 109.44 267.00 120.10
  Q 267.05 123.96 267.90 125.72
  C 270.78 131.73 277.53 129.96 282.75 130.37
  A 0.89 0.89 0.0 0 1 283.48 130.90
  Q 287.39 139.94 291.89 148.57
  Q 301.65 167.25 315.27 189.61
  Q 315.42 189.86 315.67 189.71
  L 315.89 189.58
  Q 315.93 189.55 315.90 189.51
  Q 304.12 169.93 295.10 153.09
  Q 289.30 142.26 284.54 131.33
  A 0.79 0.79 0.0 0 1 285.26 130.23
  L 317.02 130.30
  Q 318.31 130.22 319.12 130.75
  L 343.49 141.63
  Q 343.65 141.72 343.85 142.69
  C 343.78 144.73 343.50 147.70 345.04 149.09
  C 347.54 151.34 350.45 147.89 352.47 146.58
  L 353.47 146.54
  Q 370.90 153.83 384.04 166.99
  C 386.06 169.01 387.36 171.41 388.98 173.82
  Q 386.57 175.12 384.25 176.56
  Q 375.88 181.75 373.99 190.82
  C 370.77 206.24 383.39 220.02 399.17 217.97
  Q 399.06 218.13 399.86 218.92
  Q 399.98 225.37 399.73 227.25
  Q 398.32 237.60 396.71 244.74
  Q 395.66 249.42 393.03 255.32
  L 392.34 255.81
  Q 391.94 256.09 391.57 255.78
  Q 382.04 247.88 370.25 247.25
  Q 364.24 246.93 352.86 247.34
  L 363.52 193.65
  Q 364.06 190.94 361.29 190.94
  L 261.53 190.95
  Q 263.51 185.96 265.86 181.09
  Q 267.81 177.06 270.25 174.72
  Q 274.37 170.76 278.96 167.76
  A 0.92 0.92 0.0 0 0 278.79 166.13
  Q 278.47 166.01 278.35 165.71
  Q 278.14 165.19 278.54 164.80
  L 279.33 164.01
  Q 279.82 163.52 279.44 162.94
  Q 278.86 162.07 278.69 161.08
  A 1.24 1.23 6.4 0 0 277.96 160.17
  Q 276.97 159.76 276.45 158.82
  Q 276.17 158.30 275.58 158.38
  Q 273.81 158.60 272.41 159.41
  Q 268.21 161.86 263.83 164.44
  A 1.11 0.95 -26.0 0 1 262.29 164.04
  Q 262.17 163.68 262.55 163.03
  Q 263.46 161.48 264.17 159.97
  A 0.78 0.78 0.0 0 0 263.32 158.87
  C 260.67 159.37 258.45 165.36 257.97 168.06
  Q 257.26 172.15 255.28 174.63
  Q 247.23 184.75 239.28 194.86
  Q 238.20 196.23 236.96 197.52
  A 0.75 0.75 0.0 0 1 235.68 197.12
  Q 235.62 196.72 234.72 196.82
  Q 229.41 183.34 223.09 172.49
  Q 221.63 170.00 219.18 166.95
  C 217.05 164.31 214.71 163.37 211.50 163.00
  Q 204.34 162.19 195.67 160.80
  L 190.01 157.38
  Q 190.08 156.83 189.83 156.48
  Q 189.61 156.16 189.22 156.14
  Q 183.98 155.79 178.84 155.34
  Q 176.19 155.10 173.64 154.05
  Q 173.15 153.85 172.83 154.28
  L 172.33 154.94
  L 172.14 151.41
  C 175.39 152.20 180.22 153.88 183.50 153.30
  Q 186.38 152.79 187.42 153.11
  L 204.30 152.17
  Q 204.83 152.14 204.91 151.61
  Q 206.98 137.16 205.19 124.45
  Q 204.39 118.75 201.98 113.67
  C 200.91 111.43 200.99 109.18 200.51 106.79
  Q 199.20 100.35 193.35 97.37
  Q 191.34 96.35 186.96 95.25
  Q 182.67 93.26 178.75 93.48
  Q 174.56 93.71 169.80 94.91
  Q 161.09 94.80 154.66 99.65
  Q 149.71 103.38 146.33 108.22
  Q 138.94 109.65 132.44 112.97
  A 0.47 0.46 -13.5 0 1 131.76 112.56
  Q 131.70 97.42 131.78 84.42
  C 131.81 81.22 130.39 78.29 127.50 76.77
  Q 125.59 75.77 121.09 75.76
  Q 85.81 75.68 50.06 75.71
  Q 52.72 69.72 58.75 60.24
  C 70.83 41.25 87.43 25.87 108.03 18.22
  Q 121.41 13.26 133.65 12.35
  C 142.53 11.70 153.38 11.33 161.94 13.68
  Q 169.61 15.78 175.88 19.07
  Q 184.03 23.34 191.32 28.98
  Q 192.87 30.18 195.55 32.28
  Z
  M 145.55 57.16
  A 0.60 0.60 0.0 0 0 146.05 58.08
  L 161.42 58.12
  A 0.60 0.60 0.0 0 0 161.91 57.17
  L 153.71 45.73
  A 0.60 0.60 0.0 0 0 152.71 45.76
  L 145.55 57.16
  Z
  M 232.60 144.23
  A 0.57 0.57 0.0 0 0 233.09 145.11
  L 245.47 144.77
  A 0.57 0.57 0.0 0 0 245.91 143.86
  L 239.47 134.91
  A 0.57 0.57 0.0 0 0 238.53 134.94
  L 232.60 144.23
  Z
  M 349.83 171.19
  A 9.41 9.41 0.0 0 0 340.42 161.78
  A 9.41 9.41 0.0 0 0 331.01 171.19
  A 9.41 9.41 0.0 0 0 340.42 180.60
  A 9.41 9.41 0.0 0 0 349.83 171.19
  Z"
/>
<path fill="#02466e" d="
  M 380.16 66.12
  L 378.08 60.84
  A 0.92 0.91 69.7 0 1 378.62 59.65
  Q 384.32 57.59 384.62 51.64
  C 384.77 48.64 383.89 44.83 380.26 44.87
  C 377.59 44.89 376.07 46.86 374.91 48.97
  Q 374.42 49.88 373.68 49.14
  C 369.83 45.28 369.87 40.32 371.45 35.47
  Q 371.68 34.76 371.02 35.12
  C 368.00 36.80 364.07 36.22 360.74 35.86
  Q 360.26 35.80 359.86 36.07
  C 354.71 39.43 347.17 38.79 341.34 37.54
  A 0.88 0.87 -84.4 0 0 340.29 38.41
  L 340.43 46.65
  Q 334.40 46.81 332.29 42.48
  Q 329.45 36.67 335.18 32.34
  Q 335.59 32.03 335.25 31.64
  C 330.89 26.63 334.51 20.34 340.65 19.85
  C 343.64 19.61 346.47 20.86 349.09 22.35
  Q 349.76 22.73 350.44 22.36
  Q 359.18 17.50 370.83 19.70
  C 377.15 20.89 383.53 22.60 385.42 29.37
  Q 385.95 31.29 387.18 32.91
  C 394.97 43.19 387.20 57.92 380.16 66.12
  Z"
/>
<path fill="#abc4e2" d="
  M 231.60 62.94
  L 227.45 59.89
  Q 227.05 56.52 224.81 53.90
  C 223.72 52.64 222.26 52.58 220.95 53.41
  Q 220.45 53.73 219.88 53.55
  Q 218.03 52.95 217.33 51.46
  Q 215.10 46.72 212.48 41.93
  A 2.98 2.77 -28.5 0 1 213.78 38.06
  C 216.75 36.48 214.00 32.64 212.91 30.91
  Q 211.86 29.24 210.28 29.56
  Q 205.16 30.62 202.79 36.40
  Q 198.98 34.96 197.62 31.34
  Q 201.84 27.03 207.00 25.53
  C 215.26 23.13 224.41 25.22 230.40 31.28
  Q 238.87 39.85 236.75 52.50
  Q 235.87 57.72 231.60 62.94
  Z"
/>
<path fill="#8db7e1" d="
  M 197.62 31.34
  Q 198.98 34.96 202.79 36.40
  Q 202.56 39.70 203.08 40.69
  Q 207.94 50.06 212.83 59.43
  Q 215.11 63.79 220.99 63.16
  Q 225.36 62.70 227.45 59.89
  L 231.60 62.94
  Q 231.55 64.11 231.14 64.03
  Q 221.84 73.08 209.49 70.83
  C 202.61 69.58 196.52 64.82 193.27 58.55
  Q 186.75 45.94 195.55 32.28
  Q 196.34 32.49 197.62 31.34
  Z"
/>
<path fill="#8db7e1" d="
  M 145.55 57.16
  L 152.71 45.76
  A 0.60 0.60 0.0 0 1 153.71 45.73
  L 161.91 57.17
  A 0.60 0.60 0.0 0 1 161.42 58.12
  L 146.05 58.08
  A 0.60 0.60 0.0 0 1 145.55 57.16
  Z"
/>
<path fill="#abc4e2" d="
  M 314.54 49.15
  Q 311.37 72.43 326.69 89.81
  Q 332.51 96.42 340.43 100.12
  Q 343.94 102.28 346.06 102.97
  Q 369.60 110.55 389.70 96.80
  Q 389.98 96.61 390.31 96.61
  Q 390.51 96.61 390.68 96.54
  Q 390.99 108.48 390.84 120.42
  Q 390.79 124.59 389.50 126.45
  C 387.88 128.79 385.21 130.03 382.30 129.95
  Q 376.90 129.79 372.15 129.93
  A 2.00 1.98 23.8 0 0 370.92 130.40
  Q 362.48 137.47 354.38 144.39
  Q 353.37 145.25 353.47 146.54
  L 352.47 146.58
  Q 352.44 145.74 352.04 145.48
  Q 349.77 143.94 346.09 142.22
  Q 344.02 141.25 343.85 142.69
  Q 343.65 141.72 343.49 141.63
  Q 344.78 136.32 344.17 130.51
  A 0.65 0.64 87.0 0 0 343.53 129.93
  Q 332.00 129.93 320.50 129.90
  Q 319.18 129.90 319.12 130.75
  Q 318.31 130.22 317.02 130.30
  L 317.10 129.89
  Q 317.20 129.42 316.73 129.30
  Q 316.23 129.16 315.77 128.95
  Q 308.23 125.55 300.32 121.65
  Q 293.00 118.05 285.14 112.70
  C 282.59 110.97 280.39 108.93 277.74 107.39
  Q 277.26 107.11 277.13 106.58
  Q 276.18 102.89 276.16 99.50
  Q 276.14 96.23 275.96 93.00
  A 0.30 0.30 0.0 0 0 275.49 92.77
  Q 274.60 93.39 274.96 94.26
  Q 275.14 94.71 275.16 95.20
  L 275.46 104.25
  Q 275.52 106.02 274.31 104.73
  Q 271.68 101.96 268.15 99.38
  Q 267.90 99.20 267.83 98.91
  Q 267.79 98.73 267.61 98.66
  Q 267.31 98.53 267.01 98.79
  L 266.90 98.01
  Q 266.81 97.37 266.16 97.42
  Q 263.00 97.70 259.89 98.46
  C 253.89 99.94 247.42 100.88 241.20 101.40
  Q 230.46 102.29 219.91 103.13
  Q 219.85 103.13 219.85 103.07
  L 219.82 102.81
  Q 219.77 102.34 220.25 102.33
  Q 226.40 102.15 232.54 101.58
  Q 240.96 100.79 258.50 98.01
  Q 262.31 97.41 263.46 95.99
  L 266.39 96.17
  Q 267.18 96.22 267.18 95.43
  Q 267.13 77.88 267.16 57.21
  Q 267.17 54.44 268.62 52.35
  Q 270.91 49.05 275.99 49.03
  Q 295.12 48.96 314.54 49.15
  Z
  M 285.47 64.91
  C 288.51 60.86 293.64 56.76 298.96 58.05
  C 302.50 58.92 302.88 63.58 302.13 66.38
  C 298.79 78.82 288.62 87.60 276.75 92.45
  Q 276.55 92.53 276.60 92.74
  L 276.72 93.20
  Q 276.80 93.51 277.09 93.37
  Q 280.98 91.54 284.65 89.49
  Q 296.18 83.01 301.64 70.88
  C 303.69 66.31 304.86 58.45 298.34 57.15
  C 290.73 55.63 283.53 65.00 280.75 70.83
  Q 276.31 80.14 275.40 92.07
  Q 275.38 92.28 275.59 92.30
  L 275.85 92.32
  Q 276.18 92.35 276.22 92.02
  C 277.50 82.04 279.49 72.84 285.47 64.91
  Z"
/>
<path fill="#8db7e1" d="
  M 285.47 64.91
  C 279.49 72.84 277.50 82.04 276.22 92.02
  Q 276.18 92.35 275.85 92.32
  L 275.59 92.30
  Q 275.38 92.28 275.40 92.07
  Q 276.31 80.14 280.75 70.83
  C 283.53 65.00 290.73 55.63 298.34 57.15
  C 304.86 58.45 303.69 66.31 301.64 70.88
  Q 296.18 83.01 284.65 89.49
  Q 280.98 91.54 277.09 93.37
  Q 276.80 93.51 276.72 93.20
  L 276.60 92.74
  Q 276.55 92.53 276.75 92.45
  C 288.62 87.60 298.79 78.82 302.13 66.38
  C 302.88 63.58 302.50 58.92 298.96 58.05
  C 293.64 56.76 288.51 60.86 285.47 64.91
  Z"
/>
<path fill="#ffffff" d="
  M 362.79 83.09
  Q 361.87 83.07 362.05 82.25
  Q 362.24 81.34 362.41 80.18
  Q 369.50 77.37 375.73 72.18
  Q 376.23 71.76 376.13 72.40
  Q 375.62 75.83 373.35 78.10
  C 370.64 80.81 366.91 83.94 362.79 83.09
  Z"
/>
<path fill="#8db7e1" d="
  M 50.06 75.71
  Q 85.81 75.68 121.09 75.76
  Q 125.59 75.77 127.50 76.77
  C 130.39 78.29 131.81 81.22 131.78 84.42
  Q 131.70 97.42 131.76 112.56
  A 0.47 0.46 -13.5 0 0 132.44 112.97
  Q 138.94 109.65 146.33 108.22
  L 145.50 109.53
  Q 144.70 109.07 144.06 109.32
  Q 138.47 111.57 132.94 113.93
  A 2.00 1.99 78.3 0 0 131.74 115.76
  L 131.77 121.48
  A 0.72 0.72 0.0 0 1 130.68 122.10
  L 125.70 119.12
  Q 125.27 118.85 124.76 118.93
  Q 123.30 119.17 121.73 120.23
  C 100.65 134.51 86.07 157.59 77.18 181.39
  Q 75.68 185.39 70.19 201.50
  Q 68.08 207.70 64.21 214.91
  Q 63.56 216.11 64.56 217.10
  C 66.79 219.33 66.88 223.40 65.80 226.07
  C 64.10 230.25 59.81 232.11 55.48 231.08
  A 1.75 1.73 25.0 0 0 53.69 231.72
  Q 43.79 244.78 30.51 253.85
  Q 29.41 254.59 29.46 255.47
  Q 28.77 254.99 27.56 255.58
  Q 27.54 255.44 27.51 255.29
  Q 29.09 253.99 29.21 253.13
  Q 33.59 251.38 38.35 247.10
  Q 46.51 239.77 53.13 231.01
  A 0.56 0.55 -53.8 0 0 53.01 230.22
  C 46.97 225.90 47.56 216.82 54.98 214.30
  Q 58.65 213.05 61.80 214.95
  A 0.90 0.90 0.0 0 0 63.04 214.62
  Q 67.05 207.47 69.81 199.11
  C 77.43 176.05 87.23 154.17 102.64 136.13
  Q 110.81 126.57 122.97 118.40
  Q 123.62 117.96 122.94 117.57
  Q 118.16 114.83 113.78 112.27
  Q 112.08 111.28 110.23 111.28
  Q 81.20 111.20 52.43 111.28
  C 45.57 111.30 42.67 106.58 43.38 100.01
  Q 43.86 95.56 43.30 91.17
  Q 43.41 87.38 43.82 83.28
  Q 44.14 80.14 45.77 78.54
  Q 47.25 77.09 50.06 75.71
  Z
  M 124.33 84.35
  A 0.60 0.60 0.0 0 0 123.73 83.75
  L 48.91 83.75
  A 0.60 0.60 0.0 0 0 48.31 84.35
  L 48.31 84.39
  A 0.60 0.60 0.0 0 0 48.91 84.99
  L 123.73 84.99
  A 0.60 0.60 0.0 0 0 124.33 84.39
  L 124.33 84.35
  Z
  M 124.19 93.43
  A 0.57 0.57 0.0 0 0 123.62 92.86
  L 48.88 92.86
  A 0.57 0.57 0.0 0 0 48.31 93.43
  L 48.31 93.45
  A 0.57 0.57 0.0 0 0 48.88 94.02
  L 123.62 94.02
  A 0.57 0.57 0.0 0 0 124.19 93.45
  L 124.19 93.43
  Z
  M 124.11 102.55
  A 0.55 0.55 0.0 0 0 123.56 102.00
  L 48.84 102.00
  A 0.55 0.55 0.0 0 0 48.29 102.55
  L 48.29 102.59
  A 0.55 0.55 0.0 0 0 48.84 103.14
  L 123.56 103.14
  A 0.55 0.55 0.0 0 0 124.11 102.59
  L 124.11 102.55
  Z"
/>
<path fill="#e1606e" d="
  M 400.47 85.74
  Q 396.28 91.36 391.31 95.30
  Q 390.89 95.63 390.68 96.54
  Q 390.51 96.61 390.31 96.61
  Q 389.98 96.61 389.70 96.80
  Q 369.60 110.55 346.06 102.97
  Q 343.94 102.28 340.43 100.12
  Q 343.20 90.69 351.03 87.08
  Q 353.40 85.99 361.53 84.28
  C 360.53 85.90 359.70 87.71 360.29 89.65
  Q 361.94 95.15 365.07 99.85
  A 0.40 0.40 0.0 0 0 365.67 99.92
  L 380.63 86.21
  Q 381.03 85.84 381.00 85.30
  L 380.86 82.91
  Q 386.76 82.41 391.63 83.63
  Q 398.36 85.32 400.47 85.74
  Z"
/>
<rect fill="#cee8ff" x="48.31" y="83.75" width="76.02" height="1.24" rx="0.60"/>
<path fill="#cee8ff" d="
  M 43.30 91.17
  Q 43.86 95.56 43.38 100.01
  C 42.67 106.58 45.57 111.30 52.43 111.28
  Q 81.20 111.20 110.23 111.28
  Q 112.08 111.28 113.78 112.27
  Q 118.16 114.83 122.94 117.57
  Q 123.62 117.96 122.97 118.40
  Q 110.81 126.57 102.64 136.13
  C 87.23 154.17 77.43 176.05 69.81 199.11
  Q 67.05 207.47 63.04 214.62
  A 0.90 0.90 0.0 0 1 61.80 214.95
  Q 58.65 213.05 54.98 214.30
  C 47.56 216.82 46.97 225.90 53.01 230.22
  A 0.56 0.55 -53.8 0 1 53.13 231.01
  Q 46.51 239.77 38.35 247.10
  Q 33.59 251.38 29.21 253.13
  Q 27.83 248.09 27.37 243.38
  Q 25.63 225.34 25.36 209.29
  Q 25.50 208.98 25.82 208.73
  Q 26.16 208.46 26.60 208.50
  C 48.86 210.45 63.29 185.84 49.43 168.13
  Q 42.03 158.66 28.78 158.27
  Q 28.45 158.26 28.44 158.60
  L 28.44 158.87
  A 0.13 0.13 0.0 0 0 28.57 159.00
  Q 37.29 159.02 43.60 163.62
  Q 51.32 169.24 53.18 178.10
  C 56.60 194.38 44.24 208.24 28.01 207.49
  Q 27.14 207.45 25.43 206.87
  L 25.56 203.61
  Q 26.49 202.62 27.19 202.69
  Q 39.25 203.32 45.27 194.84
  C 49.98 188.21 50.33 179.31 45.70 172.54
  Q 39.52 163.50 27.72 164.07
  Q 27.21 164.01 27.01 163.73
  L 27.21 160.20
  A 0.85 0.84 86.5 0 0 26.22 159.32
  Q 10.64 162.16 5.92 177.29
  Q 5.74 177.23 5.57 177.16
  Q 9.48 163.83 22.83 159.62
  Q 24.40 159.12 25.98 158.85
  Q 27.63 158.56 27.75 157.03
  Q 28.35 149.05 30.31 138.09
  Q 33.34 121.20 38.40 104.13
  Q 39.60 100.08 43.30 91.17
  Z"
/>
<rect fill="#cee8ff" x="48.31" y="92.86" width="75.88" height="1.16" rx="0.57"/>
<path fill="#8db7e1" d="
  M 317.02 130.30
  L 285.26 130.23
  A 0.79 0.79 0.0 0 0 284.54 131.33
  Q 289.30 142.26 295.10 153.09
  Q 304.12 169.93 315.90 189.51
  Q 315.93 189.55 315.89 189.58
  L 315.67 189.71
  Q 315.42 189.86 315.27 189.61
  Q 301.65 167.25 291.89 148.57
  Q 287.39 139.94 283.48 130.90
  A 0.89 0.89 0.0 0 0 282.75 130.37
  C 277.53 129.96 270.78 131.73 267.90 125.72
  Q 267.05 123.96 267.00 120.10
  Q 266.88 109.44 267.01 98.79
  Q 267.31 98.53 267.61 98.66
  Q 267.79 98.73 267.83 98.91
  Q 267.90 99.20 268.15 99.38
  Q 271.68 101.96 274.31 104.73
  Q 275.52 106.02 275.46 104.25
  L 275.16 95.20
  Q 275.14 94.71 274.96 94.26
  Q 274.60 93.39 275.49 92.77
  A 0.30 0.30 0.0 0 1 275.96 93.00
  Q 276.14 96.23 276.16 99.50
  Q 276.18 102.89 277.13 106.58
  Q 277.26 107.11 277.74 107.39
  C 280.39 108.93 282.59 110.97 285.14 112.70
  Q 293.00 118.05 300.32 121.65
  Q 308.23 125.55 315.77 128.95
  Q 316.23 129.16 316.73 129.30
  Q 317.20 129.42 317.10 129.89
  L 317.02 130.30
  Z"
/>
<path fill="#35aae0" d="
  M 186.96 95.25
  C 170.29 94.82 158.21 103.78 156.79 121.45
  Q 156.51 122.38 155.25 122.49
  Q 153.89 122.62 153.49 121.52
  Q 153.39 115.06 154.48 110.73
  Q 157.24 99.85 169.80 94.91
  Q 174.56 93.71 178.75 93.48
  Q 182.67 93.26 186.96 95.25
  Z"
/>
<path fill="#02466e" d="
  M 169.80 94.91
  Q 157.24 99.85 154.48 110.73
  Q 153.39 115.06 153.49 121.52
  Q 152.37 123.11 150.78 124.47
  Q 148.74 126.22 148.15 127.37
  C 145.11 133.34 147.54 142.14 153.71 144.89
  Q 156.23 146.02 157.76 145.68
  Q 161.43 144.87 165.32 144.20
  Q 169.24 146.26 173.75 146.93
  Q 174.25 147.01 174.58 146.62
  Q 176.35 144.50 178.78 145.46
  A 2.36 2.36 0.0 0 1 178.60 149.91
  Q 176.60 150.51 174.83 149.13
  Q 174.40 148.80 173.86 148.74
  Q 170.91 148.39 168.18 147.36
  Q 168.08 147.32 168.07 147.43
  L 168.02 147.77
  Q 168.00 147.96 168.17 148.05
  Q 170.54 149.32 172.14 151.41
  L 172.33 154.94
  Q 172.26 155.79 172.03 155.72
  L 148.09 158.78
  A 1.09 1.08 74.2 0 1 146.97 158.15
  C 140.46 143.60 137.32 124.19 145.50 109.53
  L 146.33 108.22
  Q 149.71 103.38 154.66 99.65
  Q 161.09 94.80 169.80 94.91
  Z"
/>
<path fill="#02466e" d="
  M 186.96 95.25
  Q 191.34 96.35 193.35 97.37
  Q 199.20 100.35 200.51 106.79
  C 200.99 109.18 200.91 111.43 201.98 113.67
  Q 204.39 118.75 205.19 124.45
  Q 206.98 137.16 204.91 151.61
  Q 204.83 152.14 204.30 152.17
  L 187.42 153.11
  Q 197.57 148.51 199.42 138.99
  Q 202.31 124.09 195.04 111.34
  Q 192.96 107.69 189.24 106.05
  Q 188.68 105.80 188.37 106.34
  C 183.61 114.80 173.73 119.31 164.35 121.19
  Q 163.81 121.30 163.67 121.83
  L 162.89 124.77
  L 156.79 121.45
  C 158.21 103.78 170.29 94.82 186.96 95.25
  Z"
/>
<rect fill="#cee8ff" x="48.29" y="102.00" width="75.82" height="1.14" rx="0.55"/>
<path fill="#ffffff" d="
  M 187.42 153.11
  Q 186.38 152.79 183.50 153.30
  C 180.22 153.88 175.39 152.20 172.14 151.41
  Q 170.54 149.32 168.17 148.05
  Q 168.00 147.96 168.02 147.77
  L 168.07 147.43
  Q 168.08 147.32 168.18 147.36
  Q 170.91 148.39 173.86 148.74
  Q 174.40 148.80 174.83 149.13
  Q 176.60 150.51 178.60 149.91
  A 2.36 2.36 0.0 0 0 178.78 145.46
  Q 176.35 144.50 174.58 146.62
  Q 174.25 147.01 173.75 146.93
  Q 169.24 146.26 165.32 144.20
  Q 164.64 143.96 164.34 143.59
  Q 164.00 143.18 164.28 142.73
  Q 170.24 133.25 162.89 124.77
  L 163.67 121.83
  Q 163.81 121.30 164.35 121.19
  C 173.73 119.31 183.61 114.80 188.37 106.34
  Q 188.68 105.80 189.24 106.05
  Q 192.96 107.69 195.04 111.34
  Q 202.31 124.09 199.42 138.99
  Q 197.57 148.51 187.42 153.11
  Z"
/>
<path fill="#cee8ff" d="
  M 145.50 109.53
  C 137.32 124.19 140.46 143.60 146.97 158.15
  A 1.09 1.08 74.2 0 0 148.09 158.78
  L 172.03 155.72
  Q 171.45 158.13 172.55 158.11
  L 169.25 160.53
  L 116.03 167.39
  C 108.31 167.96 101.88 169.85 99.36 177.19
  Q 98.26 180.40 99.08 187.39
  Q 102.56 216.86 106.12 246.72
  Q 106.16 246.75 106.02 246.96
  Q 105.88 247.16 105.64 247.14
  Q 101.30 246.86 98.57 247.59
  Q 94.76 248.60 91.25 254.02
  Q 92.18 248.14 93.45 242.90
  C 94.71 237.78 98.58 219.25 88.80 219.53
  Q 85.94 219.61 83.65 221.55
  C 77.79 226.49 76.51 233.21 77.05 240.59
  Q 77.49 246.74 78.05 252.92
  Q 78.29 255.48 77.80 257.94
  A 1.88 1.88 0.0 0 1 75.44 259.38
  C 70.26 257.92 66.72 251.60 63.46 247.51
  C 58.49 241.25 52.47 246.24 54.03 252.56
  Q 55.35 257.93 58.93 264.00
  Q 63.54 271.81 68.55 279.86
  C 70.80 283.47 74.50 289.38 73.24 293.47
  A 0.58 0.58 0.0 0 1 72.56 293.86
  Q 70.01 293.28 68.19 291.82
  Q 63.76 288.25 58.86 284.69
  Q 56.87 279.96 55.63 278.59
  Q 52.72 275.37 49.71 278.65
  Q 45.89 282.81 42.82 289.19
  Q 42.29 290.28 41.14 289.98
  Q 40.97 289.94 40.96 290.11
  Q 40.94 290.27 41.07 290.33
  Q 41.63 290.58 41.02 290.61
  Q 40.73 290.63 40.49 290.74
  Q 40.33 290.42 40.08 290.20
  Q 39.72 289.87 39.53 289.41
  Q 36.76 282.72 34.74 275.77
  C 33.15 270.27 30.81 265.06 30.20 259.39
  Q 29.99 257.40 29.46 255.47
  Q 29.41 254.59 30.51 253.85
  Q 43.79 244.78 53.69 231.72
  A 1.75 1.73 25.0 0 1 55.48 231.08
  C 59.81 232.11 64.10 230.25 65.80 226.07
  C 66.88 223.40 66.79 219.33 64.56 217.10
  Q 63.56 216.11 64.21 214.91
  Q 68.08 207.70 70.19 201.50
  Q 75.68 185.39 77.18 181.39
  C 86.07 157.59 100.65 134.51 121.73 120.23
  Q 123.30 119.17 124.76 118.93
  Q 125.27 118.85 125.70 119.12
  L 130.68 122.10
  A 0.72 0.72 0.0 0 0 131.77 121.48
  L 131.74 115.76
  A 2.00 1.99 78.3 0 1 132.94 113.93
  Q 138.47 111.57 144.06 109.32
  Q 144.70 109.07 145.50 109.53
  Z"
/>
<path fill="#1f71ba" d="
  M 156.79 121.45
  L 162.89 124.77
  Q 170.24 133.25 164.28 142.73
  Q 164.00 143.18 164.34 143.59
  Q 164.64 143.96 165.32 144.20
  Q 161.43 144.87 157.76 145.68
  Q 156.23 146.02 153.71 144.89
  C 147.54 142.14 145.11 133.34 148.15 127.37
  Q 148.74 126.22 150.78 124.47
  Q 152.37 123.11 153.49 121.52
  Q 153.89 122.62 155.25 122.49
  Q 156.51 122.38 156.79 121.45
  Z
  M 156.8037 141.0208
  A 6.91 5.73 79.8 0 0 161.2194 133.2053
  A 6.91 5.73 79.8 0 0 154.3563 127.4192
  A 6.91 5.73 79.8 0 0 149.9406 135.2347
  A 6.91 5.73 79.8 0 0 156.8037 141.0208
  Z"
/>
<ellipse fill="#35aae0" cx="0.00" cy="0.00" transform="translate(155.58,134.22) rotate(79.8)" rx="6.91" ry="5.73"/>
<path fill="#8db7e1" d="
  M 232.60 144.23
  L 238.53 134.94
  A 0.57 0.57 0.0 0 1 239.47 134.91
  L 245.91 143.86
  A 0.57 0.57 0.0 0 1 245.47 144.77
  L 233.09 145.11
  A 0.57 0.57 0.0 0 1 232.60 144.23
  Z
  M 233.97 143.46
  A 0.49 0.49 0.0 0 0 234.39 144.22
  L 244.15 144.16
  A 0.49 0.49 0.0 0 0 244.54 143.38
  L 239.31 136.28
  A 0.49 0.49 0.0 0 0 238.51 136.31
  L 233.97 143.46
  Z"
/>
<path fill="#cee8ff" d="
  M 233.97 143.46
  L 238.51 136.31
  A 0.49 0.49 0.0 0 1 239.31 136.28
  L 244.54 143.38
  A 0.49 0.49 0.0 0 1 244.15 144.16
  L 234.39 144.22
  A 0.49 0.49 0.0 0 1 233.97 143.46
  Z"
/>
<path fill="#8db7e1" d="
  M 352.47 146.58
  C 350.45 147.89 347.54 151.34 345.04 149.09
  C 343.50 147.70 343.78 144.73 343.85 142.69
  Q 344.02 141.25 346.09 142.22
  Q 349.77 143.94 352.04 145.48
  Q 352.44 145.74 352.47 146.58
  Z"
/>
<path fill="#ffffff" d="
  M 190.01 157.38
  C 190.06 162.18 190.00 167.86 188.30 172.33
  A 0.82 0.82 0.0 0 1 186.95 172.62
  L 172.55 158.11
  Q 171.45 158.13 172.03 155.72
  Q 172.26 155.79 172.33 154.94
  L 172.83 154.28
  Q 173.15 153.85 173.64 154.05
  Q 176.19 155.10 178.84 155.34
  Q 183.98 155.79 189.22 156.14
  Q 189.61 156.16 189.83 156.48
  Q 190.08 156.83 190.01 157.38
  Z"
/>
<path fill="#fdabb7" d="
  M 190.01 157.38
  L 195.67 160.80
  Q 196.01 165.43 198.18 170.04
  Q 199.08 171.96 197.79 173.26
  C 195.54 175.52 191.80 175.37 188.81 174.37
  Q 188.23 174.17 187.74 174.53
  C 183.91 177.28 179.18 179.50 175.75 174.93
  Q 173.61 172.07 171.45 167.51
  C 170.58 165.66 169.27 164.00 168.11 162.33
  Q 169.21 161.20 169.25 160.53
  L 172.55 158.11
  L 186.95 172.62
  A 0.82 0.82 0.0 0 0 188.30 172.33
  C 190.00 167.86 190.06 162.18 190.01 157.38
  Z"
/>
<path fill="#8db7e1" d="
  M 25.36 209.29
  Q 25.37 208.63 25.11 208.18
  Q 24.89 207.81 24.23 207.65
  Q 14.44 205.35 9.02 197.26
  Q 2.94 188.18 5.57 177.16
  Q 5.74 177.23 5.92 177.29
  C 5.82 179.51 5.29 181.48 5.35 183.73
  Q 5.63 194.88 14.17 202.23
  Q 18.35 205.82 24.00 207.10
  Q 25.01 207.33 25.43 206.87
  Q 27.14 207.45 28.01 207.49
  C 44.24 208.24 56.60 194.38 53.18 178.10
  Q 51.32 169.24 43.60 163.62
  Q 37.29 159.02 28.57 159.00
  A 0.13 0.13 0.0 0 1 28.44 158.87
  L 28.44 158.60
  Q 28.45 158.26 28.78 158.27
  Q 42.03 158.66 49.43 168.13
  C 63.29 185.84 48.86 210.45 26.60 208.50
  Q 26.16 208.46 25.82 208.73
  Q 25.50 208.98 25.36 209.29
  Z"
/>
<path fill="#ffffff" d="
  M 261.53 190.95
  L 250.85 190.96
  A 3.38 3.38 0.0 0 0 247.55 193.68
  L 241.87 222.33
  Q 239.50 222.73 237.28 223.23
  Q 234.48 223.85 232.65 223.56
  Q 225.85 222.45 222.42 215.96
  Q 223.94 214.52 224.07 214.02
  L 235.38 199.83
  Q 235.69 199.43 235.62 198.92
  Q 235.46 197.86 234.72 196.82
  Q 235.62 196.72 235.68 197.12
  A 0.75 0.75 0.0 0 0 236.96 197.52
  Q 238.20 196.23 239.28 194.86
  Q 247.23 184.75 255.28 174.63
  Q 257.26 172.15 257.97 168.06
  C 258.45 165.36 260.67 159.37 263.32 158.87
  A 0.78 0.78 0.0 0 1 264.17 159.97
  Q 263.46 161.48 262.55 163.03
  Q 262.17 163.68 262.29 164.04
  A 1.11 0.95 -26.0 0 0 263.83 164.44
  Q 268.21 161.86 272.41 159.41
  Q 273.81 158.60 275.58 158.38
  Q 276.17 158.30 276.45 158.82
  Q 276.97 159.76 277.96 160.17
  A 1.24 1.23 6.4 0 1 278.69 161.08
  Q 278.86 162.07 279.44 162.94
  Q 279.82 163.52 279.33 164.01
  L 278.54 164.80
  Q 278.14 165.19 278.35 165.71
  Q 278.47 166.01 278.79 166.13
  A 0.92 0.92 0.0 0 1 278.96 167.76
  Q 274.37 170.76 270.25 174.72
  Q 267.81 177.06 265.86 181.09
  Q 263.51 185.96 261.53 190.95
  Z"
/>
<path fill="#1f71ba" d="
  M 169.25 160.53
  Q 169.21 161.20 168.11 162.33
  Q 156.65 166.33 144.93 170.57
  Q 140.84 172.05 139.02 175.55
  Q 130.62 191.75 121.97 212.52
  L 115.99 169.30
  Q 115.93 168.82 116.23 168.44
  Q 116.72 167.83 116.03 167.39
  L 169.25 160.53
  Z"
/>
<path fill="#ff6a76" d="
  M 195.67 160.80
  Q 204.34 162.19 211.50 163.00
  C 214.71 163.37 217.05 164.31 219.18 166.95
  Q 221.63 170.00 223.09 172.49
  Q 229.41 183.34 234.72 196.82
  Q 235.46 197.86 235.62 198.92
  Q 235.69 199.43 235.38 199.83
  L 224.07 214.02
  Q 223.29 210.42 223.61 206.63
  Q 224.19 199.63 224.18 199.32
  C 223.86 189.27 220.56 181.71 215.35 173.53
  Q 215.09 173.13 214.56 173.24
  A 0.53 0.53 0.0 0 0 214.15 173.88
  Q 216.89 185.78 217.95 197.25
  Q 218.33 201.42 217.36 208.66
  Q 215.93 212.38 213.83 215.79
  Q 212.43 218.05 212.12 220.16
  Q 211.72 222.95 211.54 225.75
  Q 210.86 236.38 209.50 247.32
  L 153.96 246.90
  Q 153.44 246.90 153.04 246.56
  Q 152.32 245.93 152.01 245.02
  Q 153.11 232.67 153.87 220.24
  Q 154.26 213.82 151.64 208.33
  Q 151.30 207.62 150.91 208.30
  Q 143.20 221.95 132.80 233.68
  Q 124.75 229.05 115.49 228.21
  L 121.97 212.52
  Q 130.62 191.75 139.02 175.55
  Q 140.84 172.05 144.93 170.57
  Q 156.65 166.33 168.11 162.33
  C 169.27 164.00 170.58 165.66 171.45 167.51
  Q 173.61 172.07 175.75 174.93
  C 179.18 179.50 183.91 177.28 187.74 174.53
  Q 188.23 174.17 188.81 174.37
  C 191.80 175.37 195.54 175.52 197.79 173.26
  Q 199.08 171.96 198.18 170.04
  Q 196.01 165.43 195.67 160.80
  Z
  M 156.06 198.17
  Q 159.24 185.43 150.73 175.86
  Q 149.19 174.13 149.79 176.37
  Q 152.31 185.77 152.95 193.59
  C 153.11 195.59 153.45 199.90 152.52 201.81
  Q 152.03 202.81 152.21 203.93
  Q 152.48 205.61 153.49 204.24
  Q 155.09 202.06 156.06 198.17
  Z
  M 174.54 210.00
  Q 190.11 216.00 204.58 210.49
  Q 207.96 209.20 210.40 206.84
  Q 212.81 204.51 209.49 204.91
  Q 193.77 206.79 174.78 208.36
  Q 173.77 208.44 174.02 209.42
  Q 174.13 209.84 174.54 210.00
  Z"
/>
<path fill="#8db7e1" d="
  M 349.83 171.19
  A 9.41 9.41 0.0 0 1 340.42 180.60
  A 9.41 9.41 0.0 0 1 331.01 171.19
  A 9.41 9.41 0.0 0 1 340.42 161.78
  A 9.41 9.41 0.0 0 1 349.83 171.19
  Z
  M 348.94 171.27
  A 8.55 8.55 0.0 0 0 340.39 162.72
  A 8.55 8.55 0.0 0 0 331.84 171.27
  A 8.55 8.55 0.0 0 0 340.39 179.82
  A 8.55 8.55 0.0 0 0 348.94 171.27
  Z"
/>
<circle fill="#cee8ff" cx="340.39" cy="171.27" r="8.55"/>
<path fill="#abc4e2" d="
  M 27.01 163.73
  Q 27.21 164.01 27.72 164.07
  L 26.80 164.53
  Q 26.33 164.76 26.29 165.28
  Q 24.98 182.93 25.01 199.06
  C 25.01 199.84 25.50 200.34 25.36 201.19
  Q 25.26 201.79 25.81 202.05
  L 27.19 202.69
  Q 26.49 202.62 25.56 203.61
  L 25.50 202.77
  Q 25.46 202.21 24.93 202.02
  C 18.75 199.80 13.85 196.01 11.81 190.06
  C 8.17 179.44 13.75 167.77 24.73 165.05
  Q 26.06 164.73 27.01 163.73
  Z"
/>
<path fill="#8db7e1" d="
  M 27.72 164.07
  Q 39.52 163.50 45.70 172.54
  C 50.33 179.31 49.98 188.21 45.27 194.84
  Q 39.25 203.32 27.19 202.69
  L 25.81 202.05
  Q 25.26 201.79 25.36 201.19
  C 25.50 200.34 25.01 199.84 25.01 199.06
  Q 24.98 182.93 26.29 165.28
  Q 26.33 164.76 26.80 164.53
  L 27.72 164.07
  Z"
/>
<path fill="#115c96" d="
  M 116.03 167.39
  Q 116.72 167.83 116.23 168.44
  Q 115.93 168.82 115.99 169.30
  L 121.97 212.52
  L 115.49 228.21
  Q 110.92 239.45 120.26 246.79
  Q 113.01 247.93 106.12 246.72
  Q 102.56 216.86 99.08 187.39
  Q 98.26 180.40 99.36 177.19
  C 101.88 169.85 108.31 167.96 116.03 167.39
  Z"
/>
<path fill="#e1606e" d="
  M 224.07 214.02
  Q 223.94 214.52 222.42 215.96
  L 217.36 208.66
  Q 218.33 201.42 217.95 197.25
  Q 216.89 185.78 214.15 173.88
  A 0.53 0.53 0.0 0 1 214.56 173.24
  Q 215.09 173.13 215.35 173.53
  C 220.56 181.71 223.86 189.27 224.18 199.32
  Q 224.19 199.63 223.61 206.63
  Q 223.29 210.42 224.07 214.02
  Z"
/>
<path fill="#abc4e2" d="
  M 399.86 218.92
  Q 399.06 218.13 399.17 217.97
  Q 401.56 216.80 401.27 212.35
  Q 401.18 211.04 399.89 211.26
  C 390.53 212.85 382.40 208.17 380.31 198.93
  C 378.64 191.60 382.75 184.08 389.54 180.85
  C 390.68 180.30 391.89 180.55 393.00 179.93
  Q 393.53 179.64 393.25 179.10
  L 390.72 174.22
  Q 393.99 172.98 397.24 173.36
  Q 413.25 175.27 417.67 190.47
  Q 418.46 193.17 418.22 197.17
  Q 418.03 200.46 416.78 203.64
  Q 412.70 213.96 401.40 217.12
  Q 400.38 217.41 399.86 218.92
  Z
  M 411.11 195.55
  A 15.03 15.03 0.0 0 0 396.08 180.52
  A 15.03 15.03 0.0 0 0 381.05 195.55
  A 15.03 15.03 0.0 0 0 396.08 210.58
  A 15.03 15.03 0.0 0 0 411.11 195.55
  Z"
/>
<path fill="#8db7e1" d="
  M 388.98 173.82
  L 390.72 174.22
  L 393.25 179.10
  Q 393.53 179.64 393.00 179.93
  C 391.89 180.55 390.68 180.30 389.54 180.85
  C 382.75 184.08 378.64 191.60 380.31 198.93
  C 382.40 208.17 390.53 212.85 399.89 211.26
  Q 401.18 211.04 401.27 212.35
  Q 401.56 216.80 399.17 217.97
  C 383.39 220.02 370.77 206.24 373.99 190.82
  Q 375.88 181.75 384.25 176.56
  Q 386.57 175.12 388.98 173.82
  Z"
/>
<path fill="#e1606e" d="
  M 156.06 198.17
  Q 155.09 202.06 153.49 204.24
  Q 152.48 205.61 152.21 203.93
  Q 152.03 202.81 152.52 201.81
  C 153.45 199.90 153.11 195.59 152.95 193.59
  Q 152.31 185.77 149.79 176.37
  Q 149.19 174.13 150.73 175.86
  Q 159.24 185.43 156.06 198.17
  Z"
/>
<circle fill="#8db7e1" cx="396.08" cy="195.55" r="15.03"/>
<path fill="#1f71ba" d="
  M 352.86 247.34
  L 348.03 271.22
  Q 347.93 271.72 347.44 271.83
  Q 345.87 272.18 344.03 271.80
  L 345.37 271.80
  A 0.93 0.93 0.0 0 0 345.96 270.15
  L 312.89 243.06
  Q 317.32 239.04 316.42 234.24
  C 314.67 224.81 303.46 223.43 298.57 231.48
  L 256.00 196.57
  A 1.10 1.10 0.0 0 0 254.22 197.23
  Q 248.41 230.78 242.02 269.49
  Q 241.85 270.48 242.79 271.79
  L 231.89 271.71
  L 235.12 256.57
  Q 235.16 256.39 235.01 256.28
  Q 234.90 256.20 234.78 256.12
  L 235.01 255.97
  Q 235.13 255.89 235.16 255.75
  L 236.92 247.20
  L 241.87 222.33
  L 247.55 193.68
  A 3.38 3.38 0.0 0 1 250.85 190.96
  L 261.53 190.95
  L 361.29 190.94
  Q 364.06 190.94 363.52 193.65
  L 352.86 247.34
  Z"
/>
<path fill="#115c96" d="
  M 298.57 231.48
  Q 296.58 236.82 299.19 240.51
  Q 304.45 247.93 312.89 243.06
  L 345.96 270.15
  A 0.93 0.93 0.0 0 1 345.37 271.80
  L 344.03 271.80
  L 242.79 271.79
  Q 241.85 270.48 242.02 269.49
  Q 248.41 230.78 254.22 197.23
  A 1.10 1.10 0.0 0 1 256.00 196.57
  L 298.57 231.48
  Z"
/>
<path fill="#e1606e" d="
  M 174.54 210.00
  Q 174.13 209.84 174.02 209.42
  Q 173.77 208.44 174.78 208.36
  Q 193.77 206.79 209.49 204.91
  Q 212.81 204.51 210.40 206.84
  Q 207.96 209.20 204.58 210.49
  Q 190.11 216.00 174.54 210.00
  Z"
/>
<path fill="#1f71ba" d="
  M 152.01 245.02
  Q 151.80 246.08 151.27 245.83
  L 132.80 233.68
  Q 143.20 221.95 150.91 208.30
  Q 151.30 207.62 151.64 208.33
  Q 154.26 213.82 153.87 220.24
  Q 153.11 232.67 152.01 245.02
  Z"
/>
<path fill="#cee8ff" d="
  M 217.36 208.66
  L 222.42 215.96
  Q 225.85 222.45 232.65 223.56
  Q 234.48 223.85 237.28 223.23
  Q 239.50 222.73 241.87 222.33
  L 236.92 247.20
  L 209.50 247.32
  Q 210.86 236.38 211.54 225.75
  Q 211.72 222.95 212.12 220.16
  Q 212.43 218.05 213.83 215.79
  Q 215.93 212.38 217.36 208.66
  Z"
/>
<path fill="#e1606e" d="
  M 91.25 254.02
  Q 91.17 255.10 91.25 255.19
  A 3.10 2.60 -32.2 0 0 94.66 255.66
  Q 99.39 253.41 104.07 250.87
  Q 107.59 248.96 111.82 248.94
  C 113.04 248.93 114.12 248.51 115.04 249.63
  Q 116.30 251.16 116.01 252.70
  C 115.75 254.08 115.98 255.15 116.12 256.49
  Q 116.17 257.00 115.92 257.46
  L 112.19 264.30
  Q 110.65 267.13 108.63 269.63
  Q 106.98 271.67 105.51 273.76
  Q 105.06 274.39 105.21 275.42
  Q 104.40 275.59 103.95 276.26
  Q 100.34 281.79 98.31 286.83
  C 97.06 289.93 96.46 295.63 101.48 295.60
  Q 104.10 295.59 106.18 293.91
  C 109.91 290.90 112.61 288.13 117.58 286.08
  Q 122.98 284.15 126.45 288.01
  Q 127.96 292.08 127.58 295.74
  Q 126.78 303.36 124.49 310.48
  Q 123.75 312.08 121.59 317.55
  Q 118.61 325.09 112.41 332.99
  Q 111.94 333.58 112.18 334.47
  C 111.46 334.34 110.72 334.63 110.18 335.21
  C 104.37 341.53 97.10 346.09 88.41 346.96
  Q 87.90 347.02 87.62 347.44
  L 87.39 347.80
  Q 87.23 347.92 86.99 347.89
  C 86.50 347.59 86.22 347.34 85.62 347.27
  Q 80.17 346.63 75.87 342.88
  Q 80.96 334.75 82.73 325.03
  Q 82.77 324.81 82.98 324.72
  Q 83.11 324.67 83.20 324.58
  Q 83.42 324.36 83.48 324.05
  Q 84.98 315.87 83.67 307.44
  C 83.27 304.87 80.96 302.18 79.34 300.17
  C 77.30 297.63 73.02 299.36 71.28 301.14
  C 69.39 303.07 69.17 306.10 67.54 308.38
  Q 67.28 308.75 67.25 309.19
  C 67.02 311.92 64.35 317.49 60.67 315.81
  C 57.60 314.41 57.76 307.47 57.47 304.74
  C 56.77 298.22 59.13 292.06 57.65 285.60
  Q 57.53 285.09 57.98 284.82
  Q 58.33 284.62 58.86 284.69
  Q 63.76 288.25 68.19 291.82
  Q 70.01 293.28 72.56 293.86
  A 0.58 0.58 0.0 0 0 73.24 293.47
  C 74.50 289.38 70.80 283.47 68.55 279.86
  Q 63.54 271.81 58.93 264.00
  Q 55.35 257.93 54.03 252.56
  C 52.47 246.24 58.49 241.25 63.46 247.51
  C 66.72 251.60 70.26 257.92 75.44 259.38
  A 1.88 1.88 0.0 0 0 77.80 257.94
  Q 78.29 255.48 78.05 252.92
  Q 77.49 246.74 77.05 240.59
  C 76.51 233.21 77.79 226.49 83.65 221.55
  Q 85.94 219.61 88.80 219.53
  C 98.58 219.25 94.71 237.78 93.45 242.90
  Q 92.18 248.14 91.25 254.02
  Z"
/>
<path fill="#8ed7f8" d="
  M 312.89 243.06
  Q 304.45 247.93 299.19 240.51
  Q 296.58 236.82 298.57 231.48
  C 303.46 223.43 314.67 224.81 316.42 234.24
  Q 317.32 239.04 312.89 243.06
  Z"
/>
<path fill="#ffffff" d="
  M 115.49 228.21
  Q 124.75 229.05 132.80 233.68
  L 151.27 245.83
  Q 155.74 248.62 160.11 251.62
  Q 161.67 252.70 163.38 252.68
  Q 168.16 252.61 173.53 252.25
  Q 176.93 252.03 179.97 253.51
  Q 183.98 255.47 186.31 259.44
  Q 186.74 261.23 186.02 261.36
  Q 185.45 261.47 183.78 260.70
  Q 182.14 259.94 178.07 256.89
  Q 177.88 256.75 177.73 256.93
  L 177.52 257.18
  Q 177.39 257.34 177.56 257.46
  C 179.56 258.82 182.71 260.57 184.16 262.53
  Q 186.07 265.11 182.97 264.28
  Q 179.55 263.37 175.99 260.84
  Q 175.70 260.64 175.51 260.93
  L 175.38 261.15
  A 0.05 0.05 0.0 0 0 175.40 261.23
  Q 178.96 263.30 181.76 266.17
  A 0.50 0.49 -24.3 0 1 181.44 267.01
  C 178.62 267.21 176.00 265.65 173.62 264.28
  Q 173.23 264.05 173.26 264.50
  Q 173.26 264.64 173.34 264.77
  Q 173.50 265.04 173.75 265.15
  Q 176.77 266.45 177.87 269.27
  Q 170.89 266.91 164.41 266.22
  Q 162.64 266.04 158.84 264.17
  Q 155.69 262.62 153.43 261.77
  Q 143.74 258.11 134.27 253.94
  Q 126.70 250.61 120.26 246.79
  Q 110.92 239.45 115.49 228.21
  Z"
/>
<path fill="#35aae0" d="
  M 152.01 245.02
  Q 152.32 245.93 153.04 246.56
  Q 153.44 246.90 153.96 246.90
  L 209.50 247.32
  L 236.92 247.20
  L 235.16 255.75
  Q 235.13 255.89 235.01 255.97
  L 234.78 256.12
  L 200.73 256.12
  A 2.26 2.25 11.7 0 0 198.66 257.47
  C 197.64 259.81 199.18 261.05 201.30 261.74
  Q 216.17 266.61 231.89 271.71
  L 242.79 271.79
  L 344.03 271.80
  Q 345.87 272.18 347.44 271.83
  Q 347.93 271.72 348.03 271.22
  L 352.86 247.34
  Q 364.24 246.93 370.25 247.25
  Q 382.04 247.88 391.57 255.78
  Q 391.94 256.09 392.34 255.81
  L 393.03 255.32
  Q 392.46 257.28 395.32 259.68
  Q 399.36 263.08 406.88 270.41
  Q 410.38 273.83 410.78 276.61
  Q 411.63 282.42 407.01 285.85
  Q 403.80 288.23 399.00 288.10
  Q 387.02 287.77 374.90 288.02
  L 126.45 288.01
  Q 122.98 284.15 117.58 286.08
  Q 114.49 284.28 111.89 282.62
  Q 109.62 281.16 105.21 275.42
  Q 105.06 274.39 105.51 273.76
  Q 106.98 271.67 108.63 269.63
  Q 110.65 267.13 112.19 264.30
  L 115.92 257.46
  Q 116.17 257.00 116.12 256.49
  C 115.98 255.15 115.75 254.08 116.01 252.70
  Q 116.30 251.16 115.04 249.63
  C 114.12 248.51 113.04 248.93 111.82 248.94
  Q 107.59 248.96 104.07 250.87
  Q 99.39 253.41 94.66 255.66
  A 3.10 2.60 -32.2 0 1 91.25 255.19
  Q 91.17 255.10 91.25 254.02
  Q 94.76 248.60 98.57 247.59
  Q 101.30 246.86 105.64 247.14
  Q 105.88 247.16 106.02 246.96
  Q 106.16 246.75 106.12 246.72
  Q 113.01 247.93 120.26 246.79
  Q 126.70 250.61 134.27 253.94
  Q 143.74 258.11 153.43 261.77
  Q 155.69 262.62 158.84 264.17
  Q 162.64 266.04 164.41 266.22
  Q 170.89 266.91 177.87 269.27
  Q 183.12 269.68 188.01 268.55
  Q 191.87 267.67 190.42 264.40
  Q 188.98 261.12 186.31 259.44
  Q 183.98 255.47 179.97 253.51
  Q 176.93 252.03 173.53 252.25
  Q 168.16 252.61 163.38 252.68
  Q 161.67 252.70 160.11 251.62
  Q 155.74 248.62 151.27 245.83
  Q 151.80 246.08 152.01 245.02
  Z"
/>
<path fill="#fdabb7" d="
  M 27.51 255.29
  Q 27.54 255.44 27.56 255.58
  C 25.43 257.04 23.12 258.00 21.26 259.64
  Q 11.61 268.18 6.88 280.24
  Q 6.75 280.23 6.63 280.21
  Q 10.41 269.34 18.58 261.33
  Q 22.47 257.51 27.51 255.29
  Z"
/>
<path fill="#02466e" d="
  M 234.78 256.12
  Q 234.90 256.20 235.01 256.28
  Q 235.16 256.39 235.12 256.57
  L 231.89 271.71
  Q 216.17 266.61 201.30 261.74
  C 199.18 261.05 197.64 259.81 198.66 257.47
  A 2.26 2.25 11.7 0 1 200.73 256.12
  L 234.78 256.12
  Z"
/>
<path fill="#02466e" d="
  M 186.31 259.44
  Q 188.98 261.12 190.42 264.40
  Q 191.87 267.67 188.01 268.55
  Q 183.12 269.68 177.87 269.27
  Q 176.77 266.45 173.75 265.15
  Q 173.50 265.04 173.34 264.77
  Q 173.26 264.64 173.26 264.50
  Q 173.23 264.05 173.62 264.28
  C 176.00 265.65 178.62 267.21 181.44 267.01
  A 0.50 0.49 -24.3 0 0 181.76 266.17
  Q 178.96 263.30 175.40 261.23
  A 0.05 0.05 0.0 0 1 175.38 261.15
  L 175.51 260.93
  Q 175.70 260.64 175.99 260.84
  Q 179.55 263.37 182.97 264.28
  Q 186.07 265.11 184.16 262.53
  C 182.71 260.57 179.56 258.82 177.56 257.46
  Q 177.39 257.34 177.52 257.18
  L 177.73 256.93
  Q 177.88 256.75 178.07 256.89
  Q 182.14 259.94 183.78 260.70
  Q 185.45 261.47 186.02 261.36
  Q 186.74 261.23 186.31 259.44
  Z"
/>
<path fill="#ff6a76" d="
  M 40.49 290.74
  Q 40.73 290.63 41.02 290.61
  Q 41.63 290.58 41.07 290.33
  Q 40.94 290.27 40.96 290.11
  Q 40.97 289.94 41.14 289.98
  Q 42.29 290.28 42.82 289.19
  Q 45.89 282.81 49.71 278.65
  Q 52.72 275.37 55.63 278.59
  Q 56.87 279.96 58.86 284.69
  Q 58.33 284.62 57.98 284.82
  Q 57.53 285.09 57.65 285.60
  C 59.13 292.06 56.77 298.22 57.47 304.74
  C 57.76 307.47 57.60 314.41 60.67 315.81
  C 64.35 317.49 67.02 311.92 67.25 309.19
  Q 67.28 308.75 67.54 308.38
  C 69.17 306.10 69.39 303.07 71.28 301.14
  C 73.02 299.36 77.30 297.63 79.34 300.17
  C 80.96 302.18 83.27 304.87 83.67 307.44
  Q 84.98 315.87 83.48 324.05
  Q 83.42 324.36 83.20 324.58
  Q 83.11 324.67 82.98 324.72
  Q 82.77 324.81 82.73 325.03
  Q 80.96 334.75 75.87 342.88
  L 68.61 348.44
  L 63.21 338.70
  A 1.92 1.90 44.7 0 1 63.19 336.90
  C 65.76 331.99 67.70 326.64 70.21 321.71
  Q 72.32 317.57 73.98 312.95
  A 0.50 0.49 23.6 0 0 73.74 312.35
  L 73.51 312.22
  Q 73.30 312.12 73.21 312.33
  Q 66.10 328.33 62.51 336.25
  Q 62.43 336.43 62.26 336.54
  Q 61.59 336.96 61.58 336.17
  Q 61.57 335.78 61.39 335.45
  Q 54.74 323.33 47.36 311.24
  Q 47.06 310.74 47.20 310.16
  L 52.35 288.88
  A 0.72 0.72 0.0 0 0 52.02 288.10
  L 51.72 287.91
  A 0.26 0.26 0.0 0 0 51.34 288.07
  Q 48.98 297.63 46.84 307.64
  Q 46.73 308.16 46.36 308.49
  A 0.47 0.46 -35.7 0 1 45.66 308.38
  L 26.82 277.42
  Q 26.73 277.28 26.58 277.34
  L 26.27 277.48
  A 0.36 0.36 0.0 0 0 26.10 278.00
  L 44.96 308.92
  A 0.65 0.65 0.0 0 1 44.29 309.90
  L 20.82 305.71
  Q 20.33 305.63 20.24 306.11
  L 20.19 306.41
  A 0.23 0.23 0.0 0 0 20.38 306.68
  L 45.10 311.09
  A 2.49 2.48 -10.1 0 1 46.82 312.29
  L 60.60 335.86
  Q 61.49 337.39 59.75 337.09
  L 34.55 332.75
  A 0.21 0.21 0.0 0 0 34.30 332.92
  L 34.23 333.37
  Q 34.18 333.65 34.46 333.70
  L 61.32 338.33
  Q 61.82 338.41 62.08 338.85
  Q 64.61 343.06 66.71 347.54
  Q 66.97 348.10 66.95 348.82
  Q 62.52 351.03 58.50 350.52
  Q 40.70 348.25 25.08 336.01
  C 23.41 334.71 22.16 332.67 21.46 330.66
  A 2.98 2.98 0.0 0 1 23.01 326.98
  C 26.02 325.60 30.05 326.29 33.21 326.81
  Q 37.43 327.51 41.76 327.29
  A 1.83 1.83 0.0 0 0 43.04 324.25
  Q 40.87 321.79 37.72 320.09
  Q 29.73 315.79 22.23 312.05
  Q 17.10 309.49 13.20 306.19
  Q 9.53 303.07 11.42 298.84
  A 1.26 1.25 -86.5 0 1 12.17 298.17
  Q 14.72 297.33 17.61 298.61
  Q 22.65 300.82 26.76 301.86
  Q 28.73 302.37 30.86 301.22
  Q 31.28 301.00 31.34 300.52
  Q 31.64 298.23 29.91 295.95
  Q 25.93 290.71 22.43 285.49
  C 18.88 280.20 17.37 272.31 22.64 267.83
  C 27.69 263.54 33.34 275.23 34.64 278.46
  Q 36.86 283.94 38.43 289.51
  Q 38.73 290.57 40.13 291.32
  Q 40.50 291.52 40.56 291.10
  Q 40.59 290.92 40.49 290.74
  Z"
/>
<path fill="#cee8ff" d="
  M 105.21 275.42
  Q 109.62 281.16 111.89 282.62
  Q 114.49 284.28 117.58 286.08
  C 112.61 288.13 109.91 290.90 106.18 293.91
  Q 104.10 295.59 101.48 295.60
  C 96.46 295.63 97.06 289.93 98.31 286.83
  Q 100.34 281.79 103.95 276.26
  Q 104.40 275.59 105.21 275.42
  Z"
/>
<path fill="#e1606e" d="
  M 68.61 348.44
  Q 69.08 350.86 70.66 353.47
  Q 70.16 353.35 70.20 353.71
  Q 68.91 351.66 67.99 349.43
  Q 67.85 349.07 67.58 348.97
  Q 67.33 348.87 66.95 348.82
  Q 66.97 348.10 66.71 347.54
  Q 64.61 343.06 62.08 338.85
  Q 61.82 338.41 61.32 338.33
  L 34.46 333.70
  Q 34.18 333.65 34.23 333.37
  L 34.30 332.92
  A 0.21 0.21 0.0 0 1 34.55 332.75
  L 59.75 337.09
  Q 61.49 337.39 60.60 335.86
  L 46.82 312.29
  A 2.49 2.48 -10.1 0 0 45.10 311.09
  L 20.38 306.68
  A 0.23 0.23 0.0 0 1 20.19 306.41
  L 20.24 306.11
  Q 20.33 305.63 20.82 305.71
  L 44.29 309.90
  A 0.65 0.65 0.0 0 0 44.96 308.92
  L 26.10 278.00
  A 0.36 0.36 0.0 0 1 26.27 277.48
  L 26.58 277.34
  Q 26.73 277.28 26.82 277.42
  L 45.66 308.38
  A 0.47 0.46 -35.7 0 0 46.36 308.49
  Q 46.73 308.16 46.84 307.64
  Q 48.98 297.63 51.34 288.07
  A 0.26 0.26 0.0 0 1 51.72 287.91
  L 52.02 288.10
  A 0.72 0.72 0.0 0 1 52.35 288.88
  L 47.20 310.16
  Q 47.06 310.74 47.36 311.24
  Q 54.74 323.33 61.39 335.45
  Q 61.57 335.78 61.58 336.17
  Q 61.59 336.96 62.26 336.54
  Q 62.43 336.43 62.51 336.25
  Q 66.10 328.33 73.21 312.33
  Q 73.30 312.12 73.51 312.22
  L 73.74 312.35
  A 0.50 0.49 23.6 0 1 73.98 312.95
  Q 72.32 317.57 70.21 321.71
  C 67.70 326.64 65.76 331.99 63.19 336.90
  A 1.92 1.90 44.7 0 0 63.21 338.70
  L 68.61 348.44
  Z"
/>
<path fill="#8db7e1" d="
  M 6.63 280.21
  Q 6.75 280.23 6.88 280.24
  Q 3.28 290.54 4.19 300.96
  Q 4.30 302.32 4.12 300.96
  Q 2.68 290.42 6.63 280.21
  Z"
/>
<path fill="#6ac7e8" d="
  M 374.90 288.02
  L 368.44 296.14
  L 126.47 323.68
  Q 125.98 323.74 125.52 323.90
  L 124.06 324.42
  L 124.49 310.48
  Q 126.78 303.36 127.58 295.74
  Q 127.96 292.08 126.45 288.01
  L 374.90 288.02
  Z"
/>
<path fill="#8ed7f8" d="
  M 368.44 296.14
  L 365.93 299.66
  A 0.94 0.92 62.0 0 0 365.75 300.27
  Q 365.80 300.90 365.14 300.93
  A 0.94 0.94 0.0 0 0 364.50 301.23
  Q 347.99 319.32 322.48 333.93
  Q 320.51 335.05 319.84 335.09
  Q 317.39 318.38 301.28 323.30
  Q 293.71 318.16 284.99 317.22
  C 275.42 316.20 265.72 319.50 258.92 326.12
  Q 247.29 337.43 248.84 353.65
  Q 249.07 356.04 249.66 358.30
  Q 250.24 360.51 250.83 362.66
  Q 188.89 378.61 125.26 380.12
  A 1.02 1.02 0.0 0 1 124.21 379.09
  Q 124.32 358.83 124.08 337.97
  Q 124.08 337.45 123.79 337.02
  Q 123.34 336.35 122.80 336.42
  Q 122.46 336.06 123.29 335.86
  Q 123.76 335.75 123.77 335.26
  L 124.06 324.42
  L 125.52 323.90
  Q 125.98 323.74 126.47 323.68
  L 368.44 296.14
  Z"
/>
<path fill="#abc4e2" d="
  M 367.10 311.55
  C 366.79 309.32 366.41 306.58 366.62 304.42
  Q 366.63 304.23 366.66 304.42
  Q 367.23 307.96 367.16 311.55
  A 0.03 0.03 0.0 0 1 367.10 311.55
  Z"
/>
<path fill="#abc4e2" d="
  M 385.88 312.37
  A 5.04 5.04 0.0 0 1 380.84 317.41
  A 5.04 5.04 0.0 0 1 375.80 312.37
  A 5.04 5.04 0.0 0 1 380.84 307.33
  A 5.04 5.04 0.0 0 1 385.88 312.37
  Z
  M 385.39 312.38
  A 4.56 4.56 0.0 0 0 380.83 307.82
  A 4.56 4.56 0.0 0 0 376.27 312.38
  A 4.56 4.56 0.0 0 0 380.83 316.94
  A 4.56 4.56 0.0 0 0 385.39 312.38
  Z"
/>
<path fill="#e1606e" d="
  M 17.55 329.90
  C 11.97 324.25 7.38 316.53 5.43 308.54
  Q 5.40 308.40 5.53 308.37
  L 5.54 308.37
  Q 5.69 308.33 5.73 308.48
  C 7.76 316.52 12.14 323.41 17.83 329.64
  Q 17.95 329.78 17.82 329.90
  L 17.81 329.91
  Q 17.68 330.03 17.55 329.90
  Z"
/>
<path fill="#cee8ff" d="
  M 124.49 310.48
  L 124.06 324.42
  L 123.77 335.26
  Q 123.76 335.75 123.29 335.86
  Q 122.46 336.06 122.80 336.42
  Q 122.44 337.04 122.01 337.08
  C 119.05 337.34 113.85 337.20 112.18 334.47
  Q 111.94 333.58 112.41 332.99
  Q 118.61 325.09 121.59 317.55
  Q 123.75 312.08 124.49 310.48
  Z"
/>
<path fill="#abc4e2" d="
  M 332.07 362.25
  C 350.28 361.13 362.41 351.53 365.80 333.01
  Q 367.58 323.29 367.58 313.97
  Q 367.58 313.87 367.68 313.87
  L 367.69 313.87
  Q 367.83 313.86 367.84 314.01
  C 368.26 318.36 367.45 322.57 367.16 326.82
  C 366.12 341.79 359.30 355.26 344.51 360.36
  Q 338.46 362.45 333.60 362.62
  Q 328.10 362.82 321.89 362.99
  C 319.29 363.06 316.93 362.16 314.36 361.94
  Q 314.28 361.94 314.25 361.86
  Q 314.23 361.82 314.23 361.77
  Q 314.24 361.64 314.37 361.66
  Q 322.52 362.83 332.07 362.25
  Z"
/>
<path fill="#35aae0" d="
  M 301.28 323.30
  Q 293.32 328.38 295.30 337.73
  L 261.05 337.57
  Q 258.57 337.56 258.54 340.05
  L 258.36 361.94
  Q 255.93 360.37 251.72 362.97
  Q 251.25 363.02 250.83 362.66
  Q 250.24 360.51 249.66 358.30
  Q 249.07 356.04 248.84 353.65
  Q 247.29 337.43 258.92 326.12
  C 265.72 319.50 275.42 316.20 284.99 317.22
  Q 293.71 318.16 301.28 323.30
  Z"
/>
<path fill="#fdabb7" d="
  M 319.84 335.09
  Q 318.57 338.23 317.13 340.84
  C 316.32 342.31 314.81 343.27 314.13 345.10
  L 304.95 346.62
  L 299.75 343.54
  Q 299.27 343.26 298.81 343.57
  Q 291.35 348.62 283.74 352.73
  A 2.56 2.55 45.1 0 1 281.28 352.72
  L 259.77 340.79
  A 0.42 0.41 28.5 0 1 259.60 340.24
  L 259.76 339.94
  A 0.51 0.51 0.0 0 1 260.46 339.74
  L 282.41 352.11
  Q 282.90 352.38 283.37 352.07
  L 297.48 342.65
  Q 297.97 342.32 297.68 341.81
  L 295.30 337.73
  Q 293.32 328.38 301.28 323.30
  Q 317.39 318.38 319.84 335.09
  Z"
/>
<path fill="#ffffff" d="
  M 113.87 344.02
  C 112.37 344.21 111.13 344.98 109.59 344.95
  Q 109.24 344.95 109.58 344.86
  Q 114.75 343.48 119.65 342.20
  Q 120.44 341.99 121.40 342.06
  Q 121.87 342.09 121.43 342.24
  Q 117.84 343.52 113.87 344.02
  Z"
/>
<path fill="#abc4e2" d="
  M 314.13 345.10
  Q 315.09 352.46 313.46 358.26
  Q 312.95 360.07 312.92 360.89
  Q 312.90 361.32 313.31 361.46
  L 313.70 361.61
  A 0.07 0.07 0.0 0 1 313.69 361.74
  L 312.73 361.86
  Q 312.29 361.91 312.10 362.33
  Q 306.08 375.63 293.82 380.35
  Q 278.53 386.23 264.45 377.82
  Q 255.55 372.51 251.72 362.97
  Q 255.93 360.37 258.36 361.94
  Q 258.26 365.20 262.49 365.18
  Q 282.76 365.12 302.28 365.12
  Q 304.79 365.12 304.81 362.61
  L 304.95 346.62
  L 314.13 345.10
  Z
  M 311.2874 361.3686
  A 2.33 0.33 9.6 0 0 309.0450 360.6546
  A 2.33 0.33 9.6 0 0 306.6926 360.5914
  A 2.33 0.33 9.6 0 0 308.9350 361.3054
  A 2.33 0.33 9.6 0 0 311.2874 361.3686
  Z"
/>
<path fill="#8db7e1" d="
  M 86.99 347.89
  Q 87.23 347.92 87.39 347.80
  L 87.66 352.21
  Q 87.56 351.91 87.29 352.05
  Q 86.78 349.95 86.99 347.89
  Z"
/>
<path fill="#1f71ba" d="
  M 87.29 352.05
  Q 87.56 351.91 87.66 352.21
  L 87.72 353.69
  Q 87.75 354.21 88.27 354.21
  Q 99.61 354.22 109.32 354.17
  C 112.67 354.16 112.83 357.72 112.44 360.24
  C 111.97 363.23 109.81 362.63 107.71 362.92
  L 62.99 363.02
  Q 57.36 363.06 58.22 357.26
  Q 58.66 354.33 61.72 354.19
  Q 65.74 353.99 69.96 354.21
  A 0.28 0.28 0.0 0 0 70.26 353.95
  Q 70.27 353.83 70.20 353.71
  Q 70.16 353.35 70.66 353.47
  Q 70.75 354.10 71.00 354.10
  Q 78.86 354.16 86.75 354.18
  Q 87.25 354.18 87.26 353.68
  L 87.29 352.05
  Z"
/>
<ellipse fill="#8db7e1" cx="0.00" cy="0.00" transform="translate(308.99,360.98) rotate(9.6)" rx="2.33" ry="0.33"/>
<path fill="#115c96" d="
  M 107.71 362.92
  L 104.81 379.74
  A 0.43 0.42 4.8 0 1 104.39 380.09
  L 67.00 380.06
  A 0.61 0.61 0.0 0 1 66.40 379.57
  L 62.99 363.02
  L 107.71 362.92
  Z"
/>
</svg>
