<?xml version="1.0" encoding="UTF-8"?>
<!DOCTYPE svg PUBLIC "-//W3C//DTD SVG 1.1//EN" "http://www.w3.org/Graphics/SVG/1.1/DTD/svg11.dtd">
<svg xmlns="http://www.w3.org/2000/svg" version="1.1" width="32px" height="32px" style="shape-rendering:geometricPrecision; text-rendering:geometricPrecision; image-rendering:optimizeQuality; fill-rule:evenodd; clip-rule:evenodd" xmlns:xlink="http://www.w3.org/1999/xlink">
<g><path style="opacity:1" fill="#344ec7" d="M 27.5,6.5 C 27.427,8.02694 28.0937,9.02694 29.5,9.5C 29.5,13.5 29.5,17.5 29.5,21.5C 24.1081,30.9125 16.4414,33.0792 6.5,28C 0.296838,22.3673 -1.0365,15.8673 2.5,8.5C 3.90632,8.02694 4.57298,7.02694 4.5,5.5C 8.78127,0.815876 14.1146,-0.684124 20.5,1C 23.5952,1.93541 25.9286,3.76874 27.5,6.5 Z"/></g>
<g><path style="opacity:1" fill="#c6d0e8" d="M 22.5,9.5 C 21.609,8.89022 20.609,8.55688 19.5,8.5C 18.537,7.6365 18.537,6.96983 19.5,6.5C 21.2131,6.87929 22.2131,7.87929 22.5,9.5 Z"/></g>
<g><path style="opacity:1" fill="#95a8e3" d="M 4.5,5.5 C 4.57298,7.02694 3.90632,8.02694 2.5,8.5C 2.42702,6.97306 3.09368,5.97306 4.5,5.5 Z"/></g>
<g><path style="opacity:1" fill="#b0c0ea" d="M 27.5,6.5 C 28.9063,6.97306 29.573,7.97306 29.5,9.5C 28.0937,9.02694 27.427,8.02694 27.5,6.5 Z"/></g>
<g><path style="opacity:1" fill="#e0e5f0" d="M 8.5,5.5 C 11.5409,5.37939 13.2076,6.87939 13.5,10C 9.31242,13.9033 9.64575,17.4033 14.5,20.5C 17.9902,17.896 20.3235,18.896 21.5,23.5C 16.9882,26.6307 13.1548,25.964 10,21.5C 8.07979,18.1618 6.57979,14.6618 5.5,11C 5.96851,8.80437 6.96851,6.97104 8.5,5.5 Z"/></g>
<g><path style="opacity:1" fill="#a5b8e1" d="M 16.5,12.5 C 17.1894,11.2264 18.0228,11.2264 19,12.5C 19.6667,13.5 19.6667,14.5 19,15.5C 18.6232,14.0577 17.7899,13.0577 16.5,12.5 Z"/></g>
<g><path style="opacity:1" fill="#b7c4e4" d="M 22.5,9.5 C 25.1897,11.2593 25.8564,13.5926 24.5,16.5C 23.5793,14.2235 22.9126,11.8901 22.5,9.5 Z"/></g>
<g><path style="opacity:1" fill="#a6b8e1" d="M 19.5,8.5 C 21.7,10.5232 22.3667,12.8565 21.5,15.5C 21.0244,12.8809 19.6911,10.8809 17.5,9.5C 17.9569,8.70245 18.6236,8.36912 19.5,8.5 Z"/></g>
<g><path style="opacity:1" fill="#a4b3e5" d="M 29.5,9.5 C 30.1667,10.8333 30.8333,12.1667 31.5,13.5C 31.5,14.8333 31.5,16.1667 31.5,17.5C 30.8333,18.8333 30.1667,20.1667 29.5,21.5C 29.5,17.5 29.5,13.5 29.5,9.5 Z"/></g>
</svg>
